%TF.GenerationSoftware,KiCad,Pcbnew,(5.99.0-2514-g93e326803)*%
%TF.CreationDate,2020-08-01T18:07:19+03:00*%
%TF.ProjectId,los-fuelles,6c6f732d-6675-4656-9c6c-65732e6b6963,rev?*%
%TF.SameCoordinates,Original*%
%TF.FileFunction,Soldermask,Bot*%
%TF.FilePolarity,Negative*%
%FSLAX46Y46*%
G04 Gerber Fmt 4.6, Leading zero omitted, Abs format (unit mm)*
G04 Created by KiCad (PCBNEW (5.99.0-2514-g93e326803)) date 2020-08-01 18:07:19*
%MOMM*%
%LPD*%
G01*
G04 APERTURE LIST*
%ADD10O,1.930400X1.930400*%
%ADD11R,1.930400X1.930400*%
%ADD12R,1.500000X1.500000*%
%ADD13C,1.500000*%
%ADD14C,1.600000*%
%ADD15O,1.600000X1.600000*%
%ADD16O,2.250000X2.250000*%
%ADD17R,2.200000X2.200000*%
%ADD18O,2.200000X2.200000*%
%ADD19R,1.600000X1.600000*%
G04 APERTURE END LIST*
D10*
%TO.C,J3*%
X138531600Y-115062000D03*
X135991600Y-115062000D03*
X133451600Y-115062000D03*
D11*
X130911600Y-115062000D03*
%TD*%
D12*
%TO.C,Q2*%
X132080000Y-97129600D03*
D13*
X137160000Y-97129600D03*
X134620000Y-97129600D03*
%TD*%
D10*
%TO.C,J2*%
X136652000Y-90576400D03*
D11*
X134112000Y-90576400D03*
%TD*%
D10*
%TO.C,J1*%
X144780000Y-115062000D03*
D11*
X142240000Y-115062000D03*
%TD*%
D14*
%TO.C,C6*%
X121158000Y-107442000D03*
X126158000Y-107442000D03*
%TD*%
%TO.C,R3*%
X135128000Y-111506000D03*
D15*
X135128000Y-103886000D03*
%TD*%
D16*
%TO.C,RV1*%
X131238000Y-94346000D03*
X121238000Y-94346000D03*
D11*
X128778000Y-101346000D03*
D10*
X126238000Y-101346000D03*
X123698000Y-101346000D03*
%TD*%
D14*
%TO.C,R2*%
X132080000Y-111506000D03*
D15*
X132080000Y-103886000D03*
%TD*%
D14*
%TO.C,C4*%
X140385800Y-97993200D03*
X145385800Y-97993200D03*
%TD*%
%TO.C,C2*%
X121158000Y-110540800D03*
X126158000Y-110540800D03*
%TD*%
%TO.C,R1*%
X129032000Y-103886000D03*
D15*
X129032000Y-111506000D03*
%TD*%
D14*
%TO.C,C1*%
X126161800Y-104368600D03*
X121161800Y-104368600D03*
%TD*%
D17*
%TO.C,D1*%
X121132600Y-91516200D03*
D18*
X131292600Y-91516200D03*
%TD*%
D19*
%TO.C,C3*%
X142113000Y-106299000D03*
D14*
X144613000Y-106299000D03*
%TD*%
D19*
%TO.C,C5*%
X124968000Y-96520000D03*
D14*
X127468000Y-96520000D03*
%TD*%
%TO.C,R4*%
X138176000Y-103886000D03*
D15*
X138176000Y-111506000D03*
%TD*%
D16*
%TO.C,RV2*%
X138002000Y-94346000D03*
X148002000Y-94346000D03*
D11*
X145542000Y-101346000D03*
D10*
X143002000Y-101346000D03*
X140462000Y-101346000D03*
%TD*%
M02*
