%TF.GenerationSoftware,KiCad,Pcbnew,(5.99.0-2514-g93e326803)*%
%TF.CreationDate,2020-08-01T18:07:19+03:00*%
%TF.ProjectId,los-fuelles,6c6f732d-6675-4656-9c6c-65732e6b6963,rev?*%
%TF.SameCoordinates,Original*%
%TF.FileFunction,Legend,Bot*%
%TF.FilePolarity,Positive*%
%FSLAX46Y46*%
G04 Gerber Fmt 4.6, Leading zero omitted, Abs format (unit mm)*
G04 Created by KiCad (PCBNEW (5.99.0-2514-g93e326803)) date 2020-08-01 18:07:19*
%MOMM*%
%LPD*%
G01*
G04 APERTURE LIST*
%ADD10C,0.127000*%
%ADD11C,0.200000*%
%ADD12C,0.150000*%
%ADD13C,0.081280*%
%ADD14C,0.048768*%
%ADD15O,1.930400X1.930400*%
%ADD16R,1.930400X1.930400*%
%ADD17R,1.500000X1.500000*%
%ADD18C,1.500000*%
%ADD19C,1.600000*%
%ADD20O,1.600000X1.600000*%
%ADD21O,2.250000X2.250000*%
%ADD22R,2.200000X2.200000*%
%ADD23O,2.200000X2.200000*%
%ADD24R,1.600000X1.600000*%
G04 APERTURE END LIST*
D10*
X146556847Y-109404171D02*
X146556847Y-110051790D01*
X146594942Y-110127980D01*
X146633038Y-110166076D01*
X146709228Y-110204171D01*
X146823514Y-110204171D01*
X146899704Y-110166076D01*
X146556847Y-109899409D02*
X146633038Y-109937504D01*
X146785419Y-109937504D01*
X146861609Y-109899409D01*
X146899704Y-109861314D01*
X146937800Y-109785123D01*
X146937800Y-109556552D01*
X146899704Y-109480361D01*
X146861609Y-109442266D01*
X146785419Y-109404171D01*
X146633038Y-109404171D01*
X146556847Y-109442266D01*
X146175895Y-109937504D02*
X146175895Y-109404171D01*
X146175895Y-109137504D02*
X146213990Y-109175600D01*
X146175895Y-109213695D01*
X146137800Y-109175600D01*
X146175895Y-109137504D01*
X146175895Y-109213695D01*
X145909228Y-109404171D02*
X145604466Y-109404171D01*
X145794942Y-109137504D02*
X145794942Y-109823219D01*
X145756847Y-109899409D01*
X145680657Y-109937504D01*
X145604466Y-109937504D01*
X145337800Y-109937504D02*
X145337800Y-109137504D01*
X144994942Y-109937504D02*
X144994942Y-109518457D01*
X145033038Y-109442266D01*
X145109228Y-109404171D01*
X145223514Y-109404171D01*
X145299704Y-109442266D01*
X145337800Y-109480361D01*
X144271133Y-109404171D02*
X144271133Y-109937504D01*
X144613990Y-109404171D02*
X144613990Y-109823219D01*
X144575895Y-109899409D01*
X144499704Y-109937504D01*
X144385419Y-109937504D01*
X144309228Y-109899409D01*
X144271133Y-109861314D01*
X143890180Y-109937504D02*
X143890180Y-109137504D01*
X143890180Y-109442266D02*
X143813990Y-109404171D01*
X143661609Y-109404171D01*
X143585419Y-109442266D01*
X143547323Y-109480361D01*
X143509228Y-109556552D01*
X143509228Y-109785123D01*
X143547323Y-109861314D01*
X143585419Y-109899409D01*
X143661609Y-109937504D01*
X143813990Y-109937504D01*
X143890180Y-109899409D01*
X143166371Y-109861314D02*
X143128276Y-109899409D01*
X143166371Y-109937504D01*
X143204466Y-109899409D01*
X143166371Y-109861314D01*
X143166371Y-109937504D01*
X142442561Y-109899409D02*
X142518752Y-109937504D01*
X142671133Y-109937504D01*
X142747323Y-109899409D01*
X142785419Y-109861314D01*
X142823514Y-109785123D01*
X142823514Y-109556552D01*
X142785419Y-109480361D01*
X142747323Y-109442266D01*
X142671133Y-109404171D01*
X142518752Y-109404171D01*
X142442561Y-109442266D01*
X141985419Y-109937504D02*
X142061609Y-109899409D01*
X142099704Y-109861314D01*
X142137800Y-109785123D01*
X142137800Y-109556552D01*
X142099704Y-109480361D01*
X142061609Y-109442266D01*
X141985419Y-109404171D01*
X141871133Y-109404171D01*
X141794942Y-109442266D01*
X141756847Y-109480361D01*
X141718752Y-109556552D01*
X141718752Y-109785123D01*
X141756847Y-109861314D01*
X141794942Y-109899409D01*
X141871133Y-109937504D01*
X141985419Y-109937504D01*
X141375895Y-109937504D02*
X141375895Y-109404171D01*
X141375895Y-109480361D02*
X141337800Y-109442266D01*
X141261609Y-109404171D01*
X141147323Y-109404171D01*
X141071133Y-109442266D01*
X141033038Y-109518457D01*
X141033038Y-109937504D01*
X141033038Y-109518457D02*
X140994942Y-109442266D01*
X140918752Y-109404171D01*
X140804466Y-109404171D01*
X140728276Y-109442266D01*
X140690180Y-109518457D01*
X140690180Y-109937504D01*
X139737800Y-109099409D02*
X140423514Y-110127980D01*
X139471133Y-109937504D02*
X139471133Y-109404171D01*
X139471133Y-109556552D02*
X139433038Y-109480361D01*
X139394942Y-109442266D01*
X139318752Y-109404171D01*
X139242561Y-109404171D01*
X138861609Y-109937504D02*
X138937800Y-109899409D01*
X138975895Y-109861314D01*
X139013990Y-109785123D01*
X139013990Y-109556552D01*
X138975895Y-109480361D01*
X138937800Y-109442266D01*
X138861609Y-109404171D01*
X138747323Y-109404171D01*
X138671133Y-109442266D01*
X138633038Y-109480361D01*
X138594942Y-109556552D01*
X138594942Y-109785123D01*
X138633038Y-109861314D01*
X138671133Y-109899409D01*
X138747323Y-109937504D01*
X138861609Y-109937504D01*
X137909228Y-109899409D02*
X137985419Y-109937504D01*
X138137800Y-109937504D01*
X138213990Y-109899409D01*
X138252085Y-109861314D01*
X138290180Y-109785123D01*
X138290180Y-109556552D01*
X138252085Y-109480361D01*
X138213990Y-109442266D01*
X138137800Y-109404171D01*
X137985419Y-109404171D01*
X137909228Y-109442266D01*
X137566371Y-109937504D02*
X137566371Y-109137504D01*
X137490180Y-109632742D02*
X137261609Y-109937504D01*
X137261609Y-109404171D02*
X137566371Y-109708933D01*
X136804466Y-109937504D02*
X136880657Y-109899409D01*
X136918752Y-109861314D01*
X136956847Y-109785123D01*
X136956847Y-109556552D01*
X136918752Y-109480361D01*
X136880657Y-109442266D01*
X136804466Y-109404171D01*
X136690180Y-109404171D01*
X136613990Y-109442266D01*
X136575895Y-109480361D01*
X136537800Y-109556552D01*
X136537800Y-109785123D01*
X136575895Y-109861314D01*
X136613990Y-109899409D01*
X136690180Y-109937504D01*
X136804466Y-109937504D01*
X136080657Y-109937504D02*
X136156847Y-109899409D01*
X136194942Y-109823219D01*
X136194942Y-109137504D01*
X135433038Y-109937504D02*
X135433038Y-109518457D01*
X135471133Y-109442266D01*
X135547323Y-109404171D01*
X135699704Y-109404171D01*
X135775895Y-109442266D01*
X135433038Y-109899409D02*
X135509228Y-109937504D01*
X135699704Y-109937504D01*
X135775895Y-109899409D01*
X135813990Y-109823219D01*
X135813990Y-109747028D01*
X135775895Y-109670838D01*
X135699704Y-109632742D01*
X135509228Y-109632742D01*
X135433038Y-109594647D01*
X134480657Y-109099409D02*
X135166371Y-110127980D01*
X134099704Y-109937504D02*
X134175895Y-109899409D01*
X134213990Y-109823219D01*
X134213990Y-109137504D01*
X133680657Y-109937504D02*
X133756847Y-109899409D01*
X133794942Y-109861314D01*
X133833038Y-109785123D01*
X133833038Y-109556552D01*
X133794942Y-109480361D01*
X133756847Y-109442266D01*
X133680657Y-109404171D01*
X133566371Y-109404171D01*
X133490180Y-109442266D01*
X133452085Y-109480361D01*
X133413990Y-109556552D01*
X133413990Y-109785123D01*
X133452085Y-109861314D01*
X133490180Y-109899409D01*
X133566371Y-109937504D01*
X133680657Y-109937504D01*
X133109228Y-109899409D02*
X133033038Y-109937504D01*
X132880657Y-109937504D01*
X132804466Y-109899409D01*
X132766371Y-109823219D01*
X132766371Y-109785123D01*
X132804466Y-109708933D01*
X132880657Y-109670838D01*
X132994942Y-109670838D01*
X133071133Y-109632742D01*
X133109228Y-109556552D01*
X133109228Y-109518457D01*
X133071133Y-109442266D01*
X132994942Y-109404171D01*
X132880657Y-109404171D01*
X132804466Y-109442266D01*
X132423514Y-109632742D02*
X131813990Y-109632742D01*
X131547323Y-109404171D02*
X131242561Y-109404171D01*
X131433038Y-109937504D02*
X131433038Y-109251790D01*
X131394942Y-109175600D01*
X131318752Y-109137504D01*
X131242561Y-109137504D01*
X130633038Y-109404171D02*
X130633038Y-109937504D01*
X130975895Y-109404171D02*
X130975895Y-109823219D01*
X130937800Y-109899409D01*
X130861609Y-109937504D01*
X130747323Y-109937504D01*
X130671133Y-109899409D01*
X130633038Y-109861314D01*
X129947323Y-109899409D02*
X130023514Y-109937504D01*
X130175895Y-109937504D01*
X130252085Y-109899409D01*
X130290180Y-109823219D01*
X130290180Y-109518457D01*
X130252085Y-109442266D01*
X130175895Y-109404171D01*
X130023514Y-109404171D01*
X129947323Y-109442266D01*
X129909228Y-109518457D01*
X129909228Y-109594647D01*
X130290180Y-109670838D01*
X129452085Y-109937504D02*
X129528276Y-109899409D01*
X129566371Y-109823219D01*
X129566371Y-109137504D01*
X129033038Y-109937504D02*
X129109228Y-109899409D01*
X129147323Y-109823219D01*
X129147323Y-109137504D01*
X128423514Y-109899409D02*
X128499704Y-109937504D01*
X128652085Y-109937504D01*
X128728276Y-109899409D01*
X128766371Y-109823219D01*
X128766371Y-109518457D01*
X128728276Y-109442266D01*
X128652085Y-109404171D01*
X128499704Y-109404171D01*
X128423514Y-109442266D01*
X128385419Y-109518457D01*
X128385419Y-109594647D01*
X128766371Y-109670838D01*
X128080657Y-109899409D02*
X128004466Y-109937504D01*
X127852085Y-109937504D01*
X127775895Y-109899409D01*
X127737800Y-109823219D01*
X127737800Y-109785123D01*
X127775895Y-109708933D01*
X127852085Y-109670838D01*
X127966371Y-109670838D01*
X128042561Y-109632742D01*
X128080657Y-109556552D01*
X128080657Y-109518457D01*
X128042561Y-109442266D01*
X127966371Y-109404171D01*
X127852085Y-109404171D01*
X127775895Y-109442266D01*
D11*
X139403257Y-107095857D02*
X140117542Y-107095857D01*
X140117542Y-105895857D01*
X138688971Y-107095857D02*
X138831828Y-107038714D01*
X138903257Y-106981571D01*
X138974685Y-106867285D01*
X138974685Y-106524428D01*
X138903257Y-106410142D01*
X138831828Y-106353000D01*
X138688971Y-106295857D01*
X138474685Y-106295857D01*
X138331828Y-106353000D01*
X138260400Y-106410142D01*
X138188971Y-106524428D01*
X138188971Y-106867285D01*
X138260400Y-106981571D01*
X138331828Y-107038714D01*
X138474685Y-107095857D01*
X138688971Y-107095857D01*
X137617542Y-107038714D02*
X137474685Y-107095857D01*
X137188971Y-107095857D01*
X137046114Y-107038714D01*
X136974685Y-106924428D01*
X136974685Y-106867285D01*
X137046114Y-106753000D01*
X137188971Y-106695857D01*
X137403257Y-106695857D01*
X137546114Y-106638714D01*
X137617542Y-106524428D01*
X137617542Y-106467285D01*
X137546114Y-106353000D01*
X137403257Y-106295857D01*
X137188971Y-106295857D01*
X137046114Y-106353000D01*
X134688971Y-106467285D02*
X135188971Y-106467285D01*
X135188971Y-107095857D02*
X135188971Y-105895857D01*
X134474685Y-105895857D01*
X133260400Y-106295857D02*
X133260400Y-107095857D01*
X133903257Y-106295857D02*
X133903257Y-106924428D01*
X133831828Y-107038714D01*
X133688971Y-107095857D01*
X133474685Y-107095857D01*
X133331828Y-107038714D01*
X133260400Y-106981571D01*
X131974685Y-107038714D02*
X132117542Y-107095857D01*
X132403257Y-107095857D01*
X132546114Y-107038714D01*
X132617542Y-106924428D01*
X132617542Y-106467285D01*
X132546114Y-106353000D01*
X132403257Y-106295857D01*
X132117542Y-106295857D01*
X131974685Y-106353000D01*
X131903257Y-106467285D01*
X131903257Y-106581571D01*
X132617542Y-106695857D01*
X131046114Y-107095857D02*
X131188971Y-107038714D01*
X131260400Y-106924428D01*
X131260400Y-105895857D01*
X130260400Y-107095857D02*
X130403257Y-107038714D01*
X130474685Y-106924428D01*
X130474685Y-105895857D01*
X129117542Y-107038714D02*
X129260400Y-107095857D01*
X129546114Y-107095857D01*
X129688971Y-107038714D01*
X129760400Y-106924428D01*
X129760400Y-106467285D01*
X129688971Y-106353000D01*
X129546114Y-106295857D01*
X129260400Y-106295857D01*
X129117542Y-106353000D01*
X129046114Y-106467285D01*
X129046114Y-106581571D01*
X129760400Y-106695857D01*
X128474685Y-107038714D02*
X128331828Y-107095857D01*
X128046114Y-107095857D01*
X127903257Y-107038714D01*
X127831828Y-106924428D01*
X127831828Y-106867285D01*
X127903257Y-106753000D01*
X128046114Y-106695857D01*
X128260400Y-106695857D01*
X128403257Y-106638714D01*
X128474685Y-106524428D01*
X128474685Y-106467285D01*
X128403257Y-106353000D01*
X128260400Y-106295857D01*
X128046114Y-106295857D01*
X127903257Y-106353000D01*
D12*
%TO.C,J3*%
X139331600Y-112718904D02*
X139179219Y-112718904D01*
X139103028Y-112757000D01*
X139026838Y-112833190D01*
X138988742Y-112985571D01*
X138988742Y-113252238D01*
X139026838Y-113404619D01*
X139103028Y-113480809D01*
X139179219Y-113518904D01*
X139331600Y-113518904D01*
X139407790Y-113480809D01*
X139483980Y-113404619D01*
X139522076Y-113252238D01*
X139522076Y-112985571D01*
X139483980Y-112833190D01*
X139407790Y-112757000D01*
X139331600Y-112718904D01*
X138645885Y-112718904D02*
X138645885Y-113366523D01*
X138607790Y-113442714D01*
X138569695Y-113480809D01*
X138493504Y-113518904D01*
X138341123Y-113518904D01*
X138264933Y-113480809D01*
X138226838Y-113442714D01*
X138188742Y-113366523D01*
X138188742Y-112718904D01*
X137922076Y-112718904D02*
X137464933Y-112718904D01*
X137693504Y-113518904D02*
X137693504Y-112718904D01*
X136677314Y-113480809D02*
X136563028Y-113518904D01*
X136372552Y-113518904D01*
X136296361Y-113480809D01*
X136258266Y-113442714D01*
X136220171Y-113366523D01*
X136220171Y-113290333D01*
X136258266Y-113214142D01*
X136296361Y-113176047D01*
X136372552Y-113137952D01*
X136524933Y-113099857D01*
X136601123Y-113061761D01*
X136639219Y-113023666D01*
X136677314Y-112947476D01*
X136677314Y-112871285D01*
X136639219Y-112795095D01*
X136601123Y-112757000D01*
X136524933Y-112718904D01*
X136334457Y-112718904D01*
X136220171Y-112757000D01*
X135953504Y-112718904D02*
X135763028Y-113518904D01*
X135610647Y-112947476D01*
X135458266Y-113518904D01*
X135267790Y-112718904D01*
X134061123Y-112757000D02*
X134137314Y-112718904D01*
X134251600Y-112718904D01*
X134365885Y-112757000D01*
X134442076Y-112833190D01*
X134480171Y-112909380D01*
X134518266Y-113061761D01*
X134518266Y-113176047D01*
X134480171Y-113328428D01*
X134442076Y-113404619D01*
X134365885Y-113480809D01*
X134251600Y-113518904D01*
X134175409Y-113518904D01*
X134061123Y-113480809D01*
X134023028Y-113442714D01*
X134023028Y-113176047D01*
X134175409Y-113176047D01*
X133680171Y-113518904D02*
X133680171Y-112718904D01*
X133223028Y-113518904D01*
X133223028Y-112718904D01*
X132842076Y-113518904D02*
X132842076Y-112718904D01*
X132651600Y-112718904D01*
X132537314Y-112757000D01*
X132461123Y-112833190D01*
X132423028Y-112909380D01*
X132384933Y-113061761D01*
X132384933Y-113176047D01*
X132423028Y-113328428D01*
X132461123Y-113404619D01*
X132537314Y-113480809D01*
X132651600Y-113518904D01*
X132842076Y-113518904D01*
X131330647Y-113518904D02*
X131330647Y-112718904D01*
X130949695Y-113518904D02*
X130949695Y-112718904D01*
X130492552Y-113518904D01*
X130492552Y-112718904D01*
%TO.C,J2*%
X134746904Y-92043304D02*
X134480238Y-92843304D01*
X134213571Y-92043304D01*
X133946904Y-92538542D02*
X133337380Y-92538542D01*
X133642142Y-92843304D02*
X133642142Y-92233780D01*
X137134523Y-92081400D02*
X137210714Y-92043304D01*
X137325000Y-92043304D01*
X137439285Y-92081400D01*
X137515476Y-92157590D01*
X137553571Y-92233780D01*
X137591666Y-92386161D01*
X137591666Y-92500447D01*
X137553571Y-92652828D01*
X137515476Y-92729019D01*
X137439285Y-92805209D01*
X137325000Y-92843304D01*
X137248809Y-92843304D01*
X137134523Y-92805209D01*
X137096428Y-92767114D01*
X137096428Y-92500447D01*
X137248809Y-92500447D01*
X136753571Y-92843304D02*
X136753571Y-92043304D01*
X136296428Y-92843304D01*
X136296428Y-92043304D01*
X135915476Y-92843304D02*
X135915476Y-92043304D01*
X135725000Y-92043304D01*
X135610714Y-92081400D01*
X135534523Y-92157590D01*
X135496428Y-92233780D01*
X135458333Y-92386161D01*
X135458333Y-92500447D01*
X135496428Y-92652828D01*
X135534523Y-92729019D01*
X135610714Y-92805209D01*
X135725000Y-92843304D01*
X135915476Y-92843304D01*
%TO.C,J1*%
X145262523Y-112757000D02*
X145338714Y-112718904D01*
X145453000Y-112718904D01*
X145567285Y-112757000D01*
X145643476Y-112833190D01*
X145681571Y-112909380D01*
X145719666Y-113061761D01*
X145719666Y-113176047D01*
X145681571Y-113328428D01*
X145643476Y-113404619D01*
X145567285Y-113480809D01*
X145453000Y-113518904D01*
X145376809Y-113518904D01*
X145262523Y-113480809D01*
X145224428Y-113442714D01*
X145224428Y-113176047D01*
X145376809Y-113176047D01*
X144881571Y-113518904D02*
X144881571Y-112718904D01*
X144424428Y-113518904D01*
X144424428Y-112718904D01*
X144043476Y-113518904D02*
X144043476Y-112718904D01*
X143853000Y-112718904D01*
X143738714Y-112757000D01*
X143662523Y-112833190D01*
X143624428Y-112909380D01*
X143586333Y-113061761D01*
X143586333Y-113176047D01*
X143624428Y-113328428D01*
X143662523Y-113404619D01*
X143738714Y-113480809D01*
X143853000Y-113518904D01*
X144043476Y-113518904D01*
X142874904Y-112718904D02*
X142608238Y-113518904D01*
X142341571Y-112718904D01*
X142074904Y-113214142D02*
X141465380Y-113214142D01*
X141770142Y-113518904D02*
X141770142Y-112909380D01*
D13*
%TO.C,RV1*%
X129403323Y-91292438D02*
X129725057Y-90832819D01*
X129954866Y-91292438D02*
X129954866Y-90327238D01*
X129587171Y-90327238D01*
X129495247Y-90373200D01*
X129449285Y-90419161D01*
X129403323Y-90511085D01*
X129403323Y-90648971D01*
X129449285Y-90740895D01*
X129495247Y-90786857D01*
X129587171Y-90832819D01*
X129954866Y-90832819D01*
X129127552Y-90327238D02*
X128805819Y-91292438D01*
X128484085Y-90327238D01*
X127656771Y-91292438D02*
X128208314Y-91292438D01*
X127932542Y-91292438D02*
X127932542Y-90327238D01*
X128024466Y-90465123D01*
X128116390Y-90557047D01*
X128208314Y-90603009D01*
D14*
X122567569Y-99342302D02*
X122209066Y-99342302D01*
X122402106Y-99562920D01*
X122319375Y-99562920D01*
X122264220Y-99590497D01*
X122236643Y-99618074D01*
X122209066Y-99673228D01*
X122209066Y-99811114D01*
X122236643Y-99866268D01*
X122264220Y-99893845D01*
X122319375Y-99921422D01*
X122484837Y-99921422D01*
X122539992Y-99893845D01*
X122567569Y-99866268D01*
D13*
%TO.C,RV2*%
X146903923Y-91394038D02*
X147225657Y-90934419D01*
X147455466Y-91394038D02*
X147455466Y-90428838D01*
X147087771Y-90428838D01*
X146995847Y-90474800D01*
X146949885Y-90520761D01*
X146903923Y-90612685D01*
X146903923Y-90750571D01*
X146949885Y-90842495D01*
X146995847Y-90888457D01*
X147087771Y-90934419D01*
X147455466Y-90934419D01*
X146628152Y-90428838D02*
X146306419Y-91394038D01*
X145984685Y-90428838D01*
X145708914Y-90520761D02*
X145662952Y-90474800D01*
X145571028Y-90428838D01*
X145341219Y-90428838D01*
X145249295Y-90474800D01*
X145203333Y-90520761D01*
X145157371Y-90612685D01*
X145157371Y-90704609D01*
X145203333Y-90842495D01*
X145754876Y-91394038D01*
X145157371Y-91394038D01*
D14*
X139331569Y-99342302D02*
X138973066Y-99342302D01*
X139166106Y-99562920D01*
X139083375Y-99562920D01*
X139028220Y-99590497D01*
X139000643Y-99618074D01*
X138973066Y-99673228D01*
X138973066Y-99811114D01*
X139000643Y-99866268D01*
X139028220Y-99893845D01*
X139083375Y-99921422D01*
X139248837Y-99921422D01*
X139303992Y-99893845D01*
X139331569Y-99866268D01*
D10*
%TO.C,J3*%
X129641600Y-113792000D02*
X129641600Y-112522000D01*
X139801600Y-113792000D02*
X139801600Y-112522000D01*
X129641600Y-112522000D02*
X139801600Y-112522000D01*
X129641600Y-116332000D02*
X129641600Y-113792000D01*
X139801600Y-116332000D02*
X139801600Y-113792000D01*
X129641600Y-116332000D02*
X139801600Y-116332000D01*
X139801600Y-113792000D02*
X129641600Y-113792000D01*
%TO.C,J2*%
X137922000Y-89306400D02*
X132842000Y-89306400D01*
X132842000Y-91846400D02*
X137922000Y-91846400D01*
X137922000Y-91846400D02*
X137922000Y-89306400D01*
X132842000Y-91846400D02*
X132842000Y-89306400D01*
X132842000Y-93116400D02*
X137922000Y-93116400D01*
X137922000Y-93116400D02*
X137922000Y-91846400D01*
X132842000Y-93116400D02*
X132842000Y-91846400D01*
%TO.C,J1*%
X140970000Y-113792000D02*
X140970000Y-112522000D01*
X146050000Y-113792000D02*
X146050000Y-112522000D01*
X140970000Y-112522000D02*
X146050000Y-112522000D01*
X140970000Y-116332000D02*
X140970000Y-113792000D01*
X146050000Y-116332000D02*
X146050000Y-113792000D01*
X140970000Y-116332000D02*
X146050000Y-116332000D01*
X146050000Y-113792000D02*
X140970000Y-113792000D01*
%TO.C,RV1*%
X130302000Y-102616000D02*
X122174000Y-102616000D01*
X121158000Y-89916000D02*
X121158000Y-93091000D01*
X130302000Y-100076000D02*
X131318000Y-99060000D01*
X131318000Y-99060000D02*
X131318000Y-95631000D01*
X126238000Y-93981000D02*
X126238000Y-94711000D01*
X131318000Y-89916000D02*
X131318000Y-93091000D01*
X121158000Y-99060000D02*
X121158000Y-95631000D01*
X122174000Y-102616000D02*
X122174000Y-100076000D01*
X130302000Y-100076000D02*
X130302000Y-102616000D01*
X121793000Y-89281000D02*
X130683000Y-89281000D01*
X122174000Y-100076000D02*
X130302000Y-100076000D01*
X125873000Y-94346000D02*
X126603000Y-94346000D01*
X121158000Y-89916000D02*
X121793000Y-89281000D01*
X130683000Y-89281000D02*
X131318000Y-89916000D01*
X121158000Y-99060000D02*
X122174000Y-100076000D01*
X126873000Y-94361000D02*
G75*
G03*
X126873000Y-94361000I-635000J0D01*
G01*
X129413000Y-94346000D02*
G75*
G03*
X129413000Y-94346000I-3175000J0D01*
G01*
G36*
X128016000Y-90043000D02*
G01*
X124460000Y-90043000D01*
X124460000Y-89662000D01*
X128016000Y-89662000D01*
X128016000Y-90043000D01*
G37*
G36*
X128016000Y-99060000D02*
G01*
X124460000Y-99060000D01*
X124460000Y-98679000D01*
X128016000Y-98679000D01*
X128016000Y-99060000D01*
G37*
%TO.C,RV2*%
X147066000Y-102616000D02*
X138938000Y-102616000D01*
X137922000Y-89916000D02*
X137922000Y-93091000D01*
X147066000Y-100076000D02*
X148082000Y-99060000D01*
X148082000Y-99060000D02*
X148082000Y-95631000D01*
X143002000Y-93981000D02*
X143002000Y-94711000D01*
X148082000Y-89916000D02*
X148082000Y-93091000D01*
X137922000Y-99060000D02*
X137922000Y-95631000D01*
X138938000Y-102616000D02*
X138938000Y-100076000D01*
X147066000Y-100076000D02*
X147066000Y-102616000D01*
X138557000Y-89281000D02*
X147447000Y-89281000D01*
X138938000Y-100076000D02*
X147066000Y-100076000D01*
X142637000Y-94346000D02*
X143367000Y-94346000D01*
X137922000Y-89916000D02*
X138557000Y-89281000D01*
X147447000Y-89281000D02*
X148082000Y-89916000D01*
X137922000Y-99060000D02*
X138938000Y-100076000D01*
X143637000Y-94361000D02*
G75*
G03*
X143637000Y-94361000I-635000J0D01*
G01*
X146177000Y-94346000D02*
G75*
G03*
X146177000Y-94346000I-3175000J0D01*
G01*
G36*
X144780000Y-90043000D02*
G01*
X141224000Y-90043000D01*
X141224000Y-89662000D01*
X144780000Y-89662000D01*
X144780000Y-90043000D01*
G37*
G36*
X144780000Y-99060000D02*
G01*
X141224000Y-99060000D01*
X141224000Y-98679000D01*
X144780000Y-98679000D01*
X144780000Y-99060000D01*
G37*
%TD*%
%LPC*%
D15*
%TO.C,J3*%
X138531600Y-115062000D03*
X135991600Y-115062000D03*
X133451600Y-115062000D03*
D16*
X130911600Y-115062000D03*
%TD*%
D17*
%TO.C,Q2*%
X132080000Y-97129600D03*
D18*
X137160000Y-97129600D03*
X134620000Y-97129600D03*
%TD*%
D15*
%TO.C,J2*%
X136652000Y-90576400D03*
D16*
X134112000Y-90576400D03*
%TD*%
D15*
%TO.C,J1*%
X144780000Y-115062000D03*
D16*
X142240000Y-115062000D03*
%TD*%
D19*
%TO.C,C6*%
X121158000Y-107442000D03*
X126158000Y-107442000D03*
%TD*%
%TO.C,R3*%
X135128000Y-111506000D03*
D20*
X135128000Y-103886000D03*
%TD*%
D21*
%TO.C,RV1*%
X131238000Y-94346000D03*
X121238000Y-94346000D03*
D16*
X128778000Y-101346000D03*
D15*
X126238000Y-101346000D03*
X123698000Y-101346000D03*
%TD*%
D19*
%TO.C,R2*%
X132080000Y-111506000D03*
D20*
X132080000Y-103886000D03*
%TD*%
D19*
%TO.C,C4*%
X140385800Y-97993200D03*
X145385800Y-97993200D03*
%TD*%
%TO.C,C2*%
X121158000Y-110540800D03*
X126158000Y-110540800D03*
%TD*%
%TO.C,R1*%
X129032000Y-103886000D03*
D20*
X129032000Y-111506000D03*
%TD*%
D19*
%TO.C,C1*%
X126161800Y-104368600D03*
X121161800Y-104368600D03*
%TD*%
D22*
%TO.C,D1*%
X121132600Y-91516200D03*
D23*
X131292600Y-91516200D03*
%TD*%
D24*
%TO.C,C3*%
X142113000Y-106299000D03*
D19*
X144613000Y-106299000D03*
%TD*%
D24*
%TO.C,C5*%
X124968000Y-96520000D03*
D19*
X127468000Y-96520000D03*
%TD*%
%TO.C,R4*%
X138176000Y-103886000D03*
D20*
X138176000Y-111506000D03*
%TD*%
D21*
%TO.C,RV2*%
X138002000Y-94346000D03*
X148002000Y-94346000D03*
D16*
X145542000Y-101346000D03*
D15*
X143002000Y-101346000D03*
X140462000Y-101346000D03*
%TD*%
M02*
