%TF.GenerationSoftware,KiCad,Pcbnew,(5.99.0-2514-g93e326803)*%
%TF.CreationDate,2020-08-01T18:07:19+03:00*%
%TF.ProjectId,los-fuelles,6c6f732d-6675-4656-9c6c-65732e6b6963,rev?*%
%TF.SameCoordinates,Original*%
%TF.FileFunction,Copper,L1,Top*%
%TF.FilePolarity,Positive*%
%FSLAX46Y46*%
G04 Gerber Fmt 4.6, Leading zero omitted, Abs format (unit mm)*
G04 Created by KiCad (PCBNEW (5.99.0-2514-g93e326803)) date 2020-08-01 18:07:19*
%MOMM*%
%LPD*%
G01*
G04 APERTURE LIST*
%TA.AperFunction,ComponentPad*%
%ADD10O,1.930400X1.930400*%
%TD*%
%TA.AperFunction,ComponentPad*%
%ADD11R,1.930400X1.930400*%
%TD*%
%TA.AperFunction,ComponentPad*%
%ADD12R,1.500000X1.500000*%
%TD*%
%TA.AperFunction,ComponentPad*%
%ADD13C,1.500000*%
%TD*%
%TA.AperFunction,ComponentPad*%
%ADD14C,1.600000*%
%TD*%
%TA.AperFunction,ComponentPad*%
%ADD15O,1.600000X1.600000*%
%TD*%
%TA.AperFunction,ComponentPad*%
%ADD16O,2.250000X2.250000*%
%TD*%
%TA.AperFunction,ComponentPad*%
%ADD17R,2.200000X2.200000*%
%TD*%
%TA.AperFunction,ComponentPad*%
%ADD18O,2.200000X2.200000*%
%TD*%
%TA.AperFunction,ComponentPad*%
%ADD19R,1.600000X1.600000*%
%TD*%
%TA.AperFunction,SMDPad,CuDef*%
%ADD20R,0.900000X0.800000*%
%TD*%
%TA.AperFunction,Conductor*%
%ADD21C,0.381000*%
%TD*%
%TA.AperFunction,Conductor*%
%ADD22C,0.254000*%
%TD*%
G04 APERTURE END LIST*
D10*
%TO.P,J3,4,Pin_4*%
%TO.N,OUT*%
X138531600Y-115062000D03*
%TO.P,J3,3,Pin_3*%
%TO.N,Net-(J3-Pad3)*%
X135991600Y-115062000D03*
%TO.P,J3,2,Pin_2*%
%TO.N,GND*%
X133451600Y-115062000D03*
D11*
%TO.P,J3,1,Pin_1*%
%TO.N,IN*%
X130911600Y-115062000D03*
%TD*%
D12*
%TO.P,Q2,1,E*%
%TO.N,Net-(C3-Pad1)*%
X132080000Y-97129600D03*
D13*
%TO.P,Q2,3,C*%
%TO.N,Net-(C4-Pad1)*%
X137160000Y-97129600D03*
%TO.P,Q2,2,B*%
%TO.N,Net-(Q1-Pad1)*%
X134620000Y-97129600D03*
%TD*%
D10*
%TO.P,J2,2*%
%TO.N,GND*%
X136652000Y-90576400D03*
D11*
%TO.P,J2,1*%
%TO.N,Net-(D1-Pad2)*%
X134112000Y-90576400D03*
%TD*%
D10*
%TO.P,J1,2*%
%TO.N,GND*%
X144780000Y-115062000D03*
D11*
%TO.P,J1,1*%
%TO.N,Net-(D1-Pad2)*%
X142240000Y-115062000D03*
%TD*%
D14*
%TO.P,C6,1*%
%TO.N,GND*%
X121158000Y-107442000D03*
%TO.P,C6,2*%
%TO.N,+9V*%
X126158000Y-107442000D03*
%TD*%
%TO.P,R3,1*%
%TO.N,+9V*%
X135128000Y-111506000D03*
D15*
%TO.P,R3,2*%
%TO.N,Net-(C4-Pad1)*%
X135128000Y-103886000D03*
%TD*%
D16*
%TO.P,RV1,*%
%TO.N,*%
X131238000Y-94346000D03*
X121238000Y-94346000D03*
D11*
%TO.P,RV1,1,1*%
%TO.N,Net-(R1-Pad1)*%
X128778000Y-101346000D03*
D10*
%TO.P,RV1,2,2*%
%TO.N,Net-(C1-Pad1)*%
X126238000Y-101346000D03*
%TO.P,RV1,3,3*%
%TO.N,IN*%
X123698000Y-101346000D03*
%TD*%
D14*
%TO.P,R2,1*%
%TO.N,Net-(C1-Pad2)*%
X132080000Y-111506000D03*
D15*
%TO.P,R2,2*%
%TO.N,Net-(Q1-Pad2)*%
X132080000Y-103886000D03*
%TD*%
D14*
%TO.P,C4,1*%
%TO.N,Net-(C4-Pad1)*%
X140385800Y-97993200D03*
%TO.P,C4,2*%
%TO.N,Net-(C4-Pad2)*%
X145385800Y-97993200D03*
%TD*%
%TO.P,C2,1*%
%TO.N,Net-(C1-Pad2)*%
X121158000Y-110540800D03*
%TO.P,C2,2*%
%TO.N,GND*%
X126158000Y-110540800D03*
%TD*%
%TO.P,R1,1*%
%TO.N,Net-(R1-Pad1)*%
X129032000Y-103886000D03*
D15*
%TO.P,R1,2*%
%TO.N,GND*%
X129032000Y-111506000D03*
%TD*%
D14*
%TO.P,C1,1*%
%TO.N,Net-(C1-Pad1)*%
X126161800Y-104368600D03*
%TO.P,C1,2*%
%TO.N,Net-(C1-Pad2)*%
X121161800Y-104368600D03*
%TD*%
D17*
%TO.P,D1,1,K*%
%TO.N,+9V*%
X121132600Y-91516200D03*
D18*
%TO.P,D1,2,A*%
%TO.N,Net-(D1-Pad2)*%
X131292600Y-91516200D03*
%TD*%
D19*
%TO.P,C3,1*%
%TO.N,Net-(C3-Pad1)*%
X142113000Y-106299000D03*
D14*
%TO.P,C3,2*%
%TO.N,GND*%
X144613000Y-106299000D03*
%TD*%
D19*
%TO.P,C5,1*%
%TO.N,+9V*%
X124968000Y-96520000D03*
D14*
%TO.P,C5,2*%
%TO.N,GND*%
X127468000Y-96520000D03*
%TD*%
%TO.P,R4,1*%
%TO.N,Net-(C3-Pad1)*%
X138176000Y-103886000D03*
D15*
%TO.P,R4,2*%
%TO.N,GND*%
X138176000Y-111506000D03*
%TD*%
D20*
%TO.P,Q1,1,D*%
%TO.N,Net-(Q1-Pad1)*%
X133874000Y-100040400D03*
%TO.P,Q1,2,S*%
%TO.N,Net-(Q1-Pad2)*%
X133874000Y-101940400D03*
%TO.P,Q1,3,G*%
%TO.N,Net-(C4-Pad1)*%
X135874000Y-100990400D03*
%TD*%
D16*
%TO.P,RV2,*%
%TO.N,*%
X138002000Y-94346000D03*
X148002000Y-94346000D03*
D11*
%TO.P,RV2,1,1*%
%TO.N,GND*%
X145542000Y-101346000D03*
D10*
%TO.P,RV2,2,2*%
%TO.N,OUT*%
X143002000Y-101346000D03*
%TO.P,RV2,3,3*%
%TO.N,Net-(C4-Pad2)*%
X140462000Y-101346000D03*
%TD*%
D21*
%TO.N,Net-(D1-Pad2)*%
X134112000Y-90576400D02*
X132232400Y-90576400D01*
X132232400Y-90576400D02*
X131292600Y-91516200D01*
%TO.N,+9V*%
X124866400Y-103936800D02*
X124206000Y-103276400D01*
X126158000Y-107442000D02*
X124866400Y-106150400D01*
X124206000Y-103276400D02*
X123621962Y-103276400D01*
X124866400Y-106150400D02*
X124866400Y-103936800D01*
X123621962Y-103276400D02*
X122342299Y-101996737D01*
X122342299Y-101996737D02*
X122342299Y-99145701D01*
X122342299Y-99145701D02*
X124968000Y-96520000D01*
X135128000Y-111506000D02*
X131064000Y-107442000D01*
X131064000Y-107442000D02*
X126158000Y-107442000D01*
%TO.N,Net-(C1-Pad2)*%
X130889499Y-112696501D02*
X122551701Y-112696501D01*
X132080000Y-111506000D02*
X130889499Y-112696501D01*
X122551701Y-112696501D02*
X121158000Y-111302800D01*
X121158000Y-111302800D02*
X121158000Y-110540800D01*
X121158000Y-110540800D02*
X122348501Y-109350299D01*
X122348501Y-109350299D02*
X122348501Y-105555301D01*
X122348501Y-105555301D02*
X121161800Y-104368600D01*
%TO.N,+9V*%
X121132600Y-91516200D02*
X124968000Y-95351600D01*
X124968000Y-95351600D02*
X124968000Y-96520000D01*
%TO.N,Net-(Q1-Pad1)*%
X133899400Y-100040400D02*
X133899400Y-98256600D01*
X134620000Y-97129600D02*
X133899400Y-97850200D01*
X133899400Y-97850200D02*
X133899400Y-98256600D01*
%TO.N,Net-(C3-Pad1)*%
X130889499Y-104457441D02*
X130889499Y-98529899D01*
X130889499Y-98320101D02*
X130889499Y-98529899D01*
X132080000Y-97129600D02*
X130889499Y-98320101D01*
%TO.N,Net-(D1-Pad2)*%
X134112000Y-90576400D02*
X136366099Y-92830499D01*
X136366099Y-92830499D02*
X141985041Y-92830499D01*
X141985041Y-92830499D02*
X146897701Y-97743159D01*
X146897701Y-97743159D02*
X146897701Y-110404299D01*
X146897701Y-110404299D02*
X142240000Y-115062000D01*
%TO.N,Net-(C4-Pad1)*%
X135899400Y-100990400D02*
X135899400Y-98161600D01*
X135899400Y-98161600D02*
X137134600Y-96926400D01*
X135899400Y-100990400D02*
X135899400Y-103114600D01*
X135899400Y-103114600D02*
X135128000Y-103886000D01*
X137134600Y-96926400D02*
X139319000Y-96926400D01*
X139319000Y-96926400D02*
X140385800Y-97993200D01*
%TO.N,Net-(Q1-Pad2)*%
X132080000Y-103886000D02*
X132080000Y-103759800D01*
X132080000Y-103759800D02*
X133899400Y-101940400D01*
%TO.N,Net-(C3-Pad1)*%
X138176000Y-103886000D02*
X136985499Y-105076501D01*
X136985499Y-105076501D02*
X131508559Y-105076501D01*
X131508559Y-105076501D02*
X130889499Y-104457441D01*
%TO.N,OUT*%
X138684000Y-115062000D02*
X145803501Y-107942499D01*
X145803501Y-107942499D02*
X145803501Y-104147501D01*
X145803501Y-104147501D02*
X143002000Y-101346000D01*
%TO.N,Net-(C3-Pad1)*%
X138176000Y-103886000D02*
X139700000Y-103886000D01*
X139700000Y-103886000D02*
X142113000Y-106299000D01*
%TO.N,Net-(C4-Pad2)*%
X140462000Y-101346000D02*
X143814800Y-97993200D01*
X143814800Y-97993200D02*
X145385800Y-97993200D01*
%TO.N,Net-(C1-Pad1)*%
X126238000Y-101346000D02*
X126238000Y-104292400D01*
X126238000Y-104292400D02*
X126161800Y-104368600D01*
%TO.N,Net-(R1-Pad1)*%
X129032000Y-103886000D02*
X129032000Y-101600000D01*
X129032000Y-101600000D02*
X128778000Y-101346000D01*
%TD*%
%TO.N,GND*%
D22*
X148966776Y-92872708D02*
X148927934Y-92844488D01*
X148919492Y-92839315D01*
X148681646Y-92718126D01*
X148672499Y-92714337D01*
X148418623Y-92631847D01*
X148408995Y-92629536D01*
X148145341Y-92587778D01*
X148135470Y-92587001D01*
X147868530Y-92587001D01*
X147858659Y-92587778D01*
X147595005Y-92629536D01*
X147585377Y-92631847D01*
X147331501Y-92714337D01*
X147322354Y-92718126D01*
X147084508Y-92839315D01*
X147076066Y-92844488D01*
X146860106Y-93001392D01*
X146852577Y-93007822D01*
X146663822Y-93196577D01*
X146657392Y-93204106D01*
X146500488Y-93420066D01*
X146495315Y-93428508D01*
X146374126Y-93666354D01*
X146370337Y-93675501D01*
X146287847Y-93929377D01*
X146285536Y-93939005D01*
X146243778Y-94202659D01*
X146243001Y-94212530D01*
X146243001Y-94479470D01*
X146243778Y-94489341D01*
X146285536Y-94752995D01*
X146287847Y-94762623D01*
X146370337Y-95016499D01*
X146374126Y-95025646D01*
X146495315Y-95263492D01*
X146500488Y-95271934D01*
X146657392Y-95487894D01*
X146663822Y-95495423D01*
X146852577Y-95684178D01*
X146860106Y-95690608D01*
X147076066Y-95847512D01*
X147084508Y-95852685D01*
X147322354Y-95973874D01*
X147331501Y-95977663D01*
X147585377Y-96060153D01*
X147595005Y-96062464D01*
X147858659Y-96104222D01*
X147868530Y-96104999D01*
X148135470Y-96104999D01*
X148145341Y-96104222D01*
X148408995Y-96062464D01*
X148418623Y-96060153D01*
X148672499Y-95977663D01*
X148681646Y-95973874D01*
X148919492Y-95852685D01*
X148927934Y-95847512D01*
X148966776Y-95819292D01*
X148966776Y-115946776D01*
X146114143Y-115946776D01*
X146215895Y-115777431D01*
X146220477Y-115768161D01*
X146313463Y-115533306D01*
X146316470Y-115523411D01*
X146368285Y-115283753D01*
X146292636Y-115190000D01*
X144652000Y-115190000D01*
X144652000Y-114934000D01*
X146289634Y-114934000D01*
X146365119Y-114844991D01*
X146337174Y-114676196D01*
X146334655Y-114666166D01*
X146253253Y-114427050D01*
X146249130Y-114417566D01*
X146129767Y-114194955D01*
X146124149Y-114186271D01*
X145970031Y-113986146D01*
X145963072Y-113978497D01*
X145778337Y-113806229D01*
X145770221Y-113799819D01*
X145559832Y-113660036D01*
X145550778Y-113655038D01*
X145320383Y-113551495D01*
X145310634Y-113548043D01*
X145066423Y-113483519D01*
X145056242Y-113481706D01*
X144992351Y-113475667D01*
X147415393Y-111052625D01*
X147429895Y-111043475D01*
X147443567Y-111031839D01*
X147499414Y-110968604D01*
X147519340Y-110948679D01*
X147525213Y-110941904D01*
X147537650Y-110925310D01*
X147587898Y-110868415D01*
X147597755Y-110853409D01*
X147608183Y-110831199D01*
X147622896Y-110811566D01*
X147631517Y-110795819D01*
X147658155Y-110724760D01*
X147690500Y-110655868D01*
X147695809Y-110638314D01*
X147699287Y-110615042D01*
X147708053Y-110591657D01*
X147711908Y-110574123D01*
X147718343Y-110487530D01*
X147721508Y-110466357D01*
X147722201Y-110457031D01*
X147722201Y-110435627D01*
X147728067Y-110356688D01*
X147726846Y-110338776D01*
X147722201Y-110317017D01*
X147722201Y-97835525D01*
X147725984Y-97818806D01*
X147727424Y-97800910D01*
X147722201Y-97716729D01*
X147722201Y-97688527D01*
X147721564Y-97679583D01*
X147718621Y-97659040D01*
X147713922Y-97583294D01*
X147710282Y-97565714D01*
X147701951Y-97542636D01*
X147698473Y-97518350D01*
X147693434Y-97501119D01*
X147662017Y-97432020D01*
X147636180Y-97360450D01*
X147627521Y-97344285D01*
X147613528Y-97325374D01*
X147603188Y-97302634D01*
X147593516Y-97287510D01*
X147536834Y-97221727D01*
X147524101Y-97204520D01*
X147517997Y-97197436D01*
X147502867Y-97182307D01*
X147451192Y-97122335D01*
X147437663Y-97110533D01*
X147418989Y-97098429D01*
X142633369Y-92312810D01*
X142624217Y-92298305D01*
X142612581Y-92284633D01*
X142549337Y-92228778D01*
X142529420Y-92208860D01*
X142522646Y-92202987D01*
X142506059Y-92190556D01*
X142449156Y-92140301D01*
X142434150Y-92130444D01*
X142411935Y-92120014D01*
X142392309Y-92105305D01*
X142376561Y-92096683D01*
X142305497Y-92070042D01*
X142236609Y-92037700D01*
X142219054Y-92032391D01*
X142195785Y-92028914D01*
X142172400Y-92020147D01*
X142154865Y-92016292D01*
X142068269Y-92009856D01*
X142047098Y-92006692D01*
X142037773Y-92005999D01*
X142016369Y-92005999D01*
X141937431Y-92000133D01*
X141919519Y-92001354D01*
X141897760Y-92005999D01*
X137377152Y-92005999D01*
X137579382Y-91885446D01*
X137587801Y-91879441D01*
X137780730Y-91716403D01*
X137788055Y-91709103D01*
X137951766Y-91516744D01*
X137957801Y-91508346D01*
X138087895Y-91291831D01*
X138092477Y-91282561D01*
X138185463Y-91047706D01*
X138188470Y-91037811D01*
X138240285Y-90798153D01*
X138164636Y-90704400D01*
X136524000Y-90704400D01*
X136524000Y-90448400D01*
X138161634Y-90448400D01*
X138237119Y-90359391D01*
X138209174Y-90190596D01*
X138206655Y-90180566D01*
X138125253Y-89941450D01*
X138121130Y-89931966D01*
X138001767Y-89709355D01*
X137996149Y-89700671D01*
X137969621Y-89666224D01*
X148966776Y-89666224D01*
X148966776Y-92872708D01*
%TA.AperFunction,Conductor*%
G36*
X148966776Y-92872708D02*
G01*
X148927934Y-92844488D01*
X148919492Y-92839315D01*
X148681646Y-92718126D01*
X148672499Y-92714337D01*
X148418623Y-92631847D01*
X148408995Y-92629536D01*
X148145341Y-92587778D01*
X148135470Y-92587001D01*
X147868530Y-92587001D01*
X147858659Y-92587778D01*
X147595005Y-92629536D01*
X147585377Y-92631847D01*
X147331501Y-92714337D01*
X147322354Y-92718126D01*
X147084508Y-92839315D01*
X147076066Y-92844488D01*
X146860106Y-93001392D01*
X146852577Y-93007822D01*
X146663822Y-93196577D01*
X146657392Y-93204106D01*
X146500488Y-93420066D01*
X146495315Y-93428508D01*
X146374126Y-93666354D01*
X146370337Y-93675501D01*
X146287847Y-93929377D01*
X146285536Y-93939005D01*
X146243778Y-94202659D01*
X146243001Y-94212530D01*
X146243001Y-94479470D01*
X146243778Y-94489341D01*
X146285536Y-94752995D01*
X146287847Y-94762623D01*
X146370337Y-95016499D01*
X146374126Y-95025646D01*
X146495315Y-95263492D01*
X146500488Y-95271934D01*
X146657392Y-95487894D01*
X146663822Y-95495423D01*
X146852577Y-95684178D01*
X146860106Y-95690608D01*
X147076066Y-95847512D01*
X147084508Y-95852685D01*
X147322354Y-95973874D01*
X147331501Y-95977663D01*
X147585377Y-96060153D01*
X147595005Y-96062464D01*
X147858659Y-96104222D01*
X147868530Y-96104999D01*
X148135470Y-96104999D01*
X148145341Y-96104222D01*
X148408995Y-96062464D01*
X148418623Y-96060153D01*
X148672499Y-95977663D01*
X148681646Y-95973874D01*
X148919492Y-95852685D01*
X148927934Y-95847512D01*
X148966776Y-95819292D01*
X148966776Y-115946776D01*
X146114143Y-115946776D01*
X146215895Y-115777431D01*
X146220477Y-115768161D01*
X146313463Y-115533306D01*
X146316470Y-115523411D01*
X146368285Y-115283753D01*
X146292636Y-115190000D01*
X144652000Y-115190000D01*
X144652000Y-114934000D01*
X146289634Y-114934000D01*
X146365119Y-114844991D01*
X146337174Y-114676196D01*
X146334655Y-114666166D01*
X146253253Y-114427050D01*
X146249130Y-114417566D01*
X146129767Y-114194955D01*
X146124149Y-114186271D01*
X145970031Y-113986146D01*
X145963072Y-113978497D01*
X145778337Y-113806229D01*
X145770221Y-113799819D01*
X145559832Y-113660036D01*
X145550778Y-113655038D01*
X145320383Y-113551495D01*
X145310634Y-113548043D01*
X145066423Y-113483519D01*
X145056242Y-113481706D01*
X144992351Y-113475667D01*
X147415393Y-111052625D01*
X147429895Y-111043475D01*
X147443567Y-111031839D01*
X147499414Y-110968604D01*
X147519340Y-110948679D01*
X147525213Y-110941904D01*
X147537650Y-110925310D01*
X147587898Y-110868415D01*
X147597755Y-110853409D01*
X147608183Y-110831199D01*
X147622896Y-110811566D01*
X147631517Y-110795819D01*
X147658155Y-110724760D01*
X147690500Y-110655868D01*
X147695809Y-110638314D01*
X147699287Y-110615042D01*
X147708053Y-110591657D01*
X147711908Y-110574123D01*
X147718343Y-110487530D01*
X147721508Y-110466357D01*
X147722201Y-110457031D01*
X147722201Y-110435627D01*
X147728067Y-110356688D01*
X147726846Y-110338776D01*
X147722201Y-110317017D01*
X147722201Y-97835525D01*
X147725984Y-97818806D01*
X147727424Y-97800910D01*
X147722201Y-97716729D01*
X147722201Y-97688527D01*
X147721564Y-97679583D01*
X147718621Y-97659040D01*
X147713922Y-97583294D01*
X147710282Y-97565714D01*
X147701951Y-97542636D01*
X147698473Y-97518350D01*
X147693434Y-97501119D01*
X147662017Y-97432020D01*
X147636180Y-97360450D01*
X147627521Y-97344285D01*
X147613528Y-97325374D01*
X147603188Y-97302634D01*
X147593516Y-97287510D01*
X147536834Y-97221727D01*
X147524101Y-97204520D01*
X147517997Y-97197436D01*
X147502867Y-97182307D01*
X147451192Y-97122335D01*
X147437663Y-97110533D01*
X147418989Y-97098429D01*
X142633369Y-92312810D01*
X142624217Y-92298305D01*
X142612581Y-92284633D01*
X142549337Y-92228778D01*
X142529420Y-92208860D01*
X142522646Y-92202987D01*
X142506059Y-92190556D01*
X142449156Y-92140301D01*
X142434150Y-92130444D01*
X142411935Y-92120014D01*
X142392309Y-92105305D01*
X142376561Y-92096683D01*
X142305497Y-92070042D01*
X142236609Y-92037700D01*
X142219054Y-92032391D01*
X142195785Y-92028914D01*
X142172400Y-92020147D01*
X142154865Y-92016292D01*
X142068269Y-92009856D01*
X142047098Y-92006692D01*
X142037773Y-92005999D01*
X142016369Y-92005999D01*
X141937431Y-92000133D01*
X141919519Y-92001354D01*
X141897760Y-92005999D01*
X137377152Y-92005999D01*
X137579382Y-91885446D01*
X137587801Y-91879441D01*
X137780730Y-91716403D01*
X137788055Y-91709103D01*
X137951766Y-91516744D01*
X137957801Y-91508346D01*
X138087895Y-91291831D01*
X138092477Y-91282561D01*
X138185463Y-91047706D01*
X138188470Y-91037811D01*
X138240285Y-90798153D01*
X138164636Y-90704400D01*
X136524000Y-90704400D01*
X136524000Y-90448400D01*
X138161634Y-90448400D01*
X138237119Y-90359391D01*
X138209174Y-90190596D01*
X138206655Y-90180566D01*
X138125253Y-89941450D01*
X138121130Y-89931966D01*
X138001767Y-89709355D01*
X137996149Y-89700671D01*
X137969621Y-89666224D01*
X148966776Y-89666224D01*
X148966776Y-92872708D01*
G37*
%TD.AperFunction*%
X144713840Y-96725316D02*
X144564932Y-96811288D01*
X144555919Y-96817599D01*
X144372166Y-96971787D01*
X144364387Y-96979566D01*
X144210199Y-97163319D01*
X144206431Y-97168700D01*
X143907165Y-97168700D01*
X143890446Y-97164917D01*
X143872551Y-97163477D01*
X143788370Y-97168700D01*
X143760168Y-97168700D01*
X143751224Y-97169337D01*
X143730681Y-97172280D01*
X143654935Y-97176979D01*
X143637355Y-97180619D01*
X143614277Y-97188950D01*
X143589991Y-97192428D01*
X143572760Y-97197467D01*
X143503661Y-97228884D01*
X143432091Y-97254721D01*
X143415926Y-97263380D01*
X143397016Y-97277372D01*
X143374275Y-97287712D01*
X143359151Y-97297385D01*
X143293358Y-97354076D01*
X143276160Y-97366801D01*
X143269077Y-97372905D01*
X143253954Y-97388028D01*
X143193976Y-97439708D01*
X143182174Y-97453237D01*
X143170068Y-97471914D01*
X140848122Y-99793861D01*
X140748423Y-99767519D01*
X140738242Y-99765706D01*
X140486770Y-99741935D01*
X140476429Y-99741808D01*
X140224451Y-99759429D01*
X140214229Y-99760993D01*
X139968513Y-99819531D01*
X139958683Y-99822743D01*
X139725827Y-99920627D01*
X139716654Y-99925402D01*
X139502912Y-100060003D01*
X139494642Y-100066212D01*
X139305754Y-100233914D01*
X139298609Y-100241391D01*
X139139647Y-100437693D01*
X139133820Y-100446236D01*
X139009054Y-100665864D01*
X139004699Y-100675244D01*
X138917479Y-100912300D01*
X138914716Y-100922266D01*
X138867385Y-101170384D01*
X138866286Y-101180667D01*
X138860114Y-101433185D01*
X138860710Y-101443509D01*
X138895864Y-101693643D01*
X138898137Y-101703732D01*
X138973673Y-101944766D01*
X138977564Y-101954348D01*
X139091452Y-102179808D01*
X139096855Y-102188626D01*
X139246038Y-102392458D01*
X139252809Y-102400275D01*
X139433280Y-102577004D01*
X139441237Y-102583610D01*
X139648148Y-102728492D01*
X139657077Y-102733710D01*
X139884873Y-102842851D01*
X139894535Y-102846540D01*
X140137098Y-102917012D01*
X140147232Y-102919073D01*
X140398048Y-102948981D01*
X140408382Y-102949360D01*
X140660714Y-102937902D01*
X140670972Y-102936588D01*
X140918045Y-102884070D01*
X140927950Y-102881099D01*
X141163128Y-102788933D01*
X141172415Y-102784384D01*
X141389382Y-102655046D01*
X141397801Y-102649041D01*
X141590730Y-102486003D01*
X141598055Y-102478703D01*
X141733060Y-102320073D01*
X141786038Y-102392458D01*
X141792809Y-102400275D01*
X141973280Y-102577004D01*
X141981237Y-102583610D01*
X142188148Y-102728492D01*
X142197077Y-102733710D01*
X142424873Y-102842851D01*
X142434535Y-102846540D01*
X142677098Y-102917012D01*
X142687232Y-102919073D01*
X142938048Y-102948981D01*
X142948382Y-102949360D01*
X143200714Y-102937902D01*
X143210972Y-102936588D01*
X143388777Y-102898794D01*
X144979002Y-104489020D01*
X144979002Y-104907415D01*
X144743897Y-104865959D01*
X144732936Y-104865000D01*
X144493064Y-104865000D01*
X144482103Y-104865959D01*
X144245874Y-104907613D01*
X144235247Y-104910460D01*
X144009840Y-104992502D01*
X143999868Y-104997152D01*
X143766397Y-105131947D01*
X143750177Y-105255156D01*
X144794020Y-106299000D01*
X144523905Y-106569115D01*
X143750177Y-107342844D01*
X143766397Y-107466053D01*
X143999868Y-107600848D01*
X144009840Y-107605498D01*
X144235247Y-107687540D01*
X144245874Y-107690387D01*
X144482103Y-107732041D01*
X144493064Y-107733000D01*
X144732936Y-107733000D01*
X144743897Y-107732041D01*
X144870214Y-107709768D01*
X139038271Y-113541712D01*
X138818023Y-113483519D01*
X138807842Y-113481706D01*
X138556370Y-113457935D01*
X138546029Y-113457808D01*
X138294051Y-113475429D01*
X138283829Y-113476993D01*
X138038113Y-113535531D01*
X138028283Y-113538743D01*
X137795427Y-113636627D01*
X137786254Y-113641402D01*
X137572512Y-113776003D01*
X137564242Y-113782212D01*
X137375354Y-113949914D01*
X137368209Y-113957391D01*
X137261227Y-114089503D01*
X137181631Y-113986146D01*
X137174672Y-113978497D01*
X136989937Y-113806229D01*
X136981821Y-113799819D01*
X136771432Y-113660036D01*
X136762378Y-113655038D01*
X136531983Y-113551495D01*
X136522234Y-113548043D01*
X136278023Y-113483519D01*
X136267842Y-113481706D01*
X136016370Y-113457935D01*
X136006029Y-113457808D01*
X135754051Y-113475429D01*
X135743829Y-113476993D01*
X135498113Y-113535531D01*
X135488283Y-113538743D01*
X135255427Y-113636627D01*
X135246254Y-113641402D01*
X135032512Y-113776003D01*
X135024242Y-113782212D01*
X134835354Y-113949914D01*
X134828209Y-113957391D01*
X134721227Y-114089503D01*
X134641631Y-113986146D01*
X134634672Y-113978497D01*
X134449937Y-113806229D01*
X134441821Y-113799819D01*
X134231432Y-113660036D01*
X134222378Y-113655038D01*
X133991983Y-113551495D01*
X133982234Y-113548043D01*
X133738023Y-113483519D01*
X133727842Y-113481706D01*
X133662002Y-113475482D01*
X133579600Y-113550461D01*
X133579600Y-115190000D01*
X133323600Y-115190000D01*
X133323600Y-113546957D01*
X133227784Y-113471286D01*
X132958113Y-113535531D01*
X132948283Y-113538743D01*
X132715427Y-113636627D01*
X132706254Y-113641402D01*
X132492512Y-113776003D01*
X132484242Y-113782212D01*
X132447523Y-113814812D01*
X132441663Y-113792942D01*
X132428920Y-113768462D01*
X132297810Y-113612210D01*
X132280921Y-113598039D01*
X132106680Y-113497441D01*
X132085963Y-113489900D01*
X131893262Y-113455922D01*
X131882301Y-113454963D01*
X131216854Y-113454963D01*
X131272206Y-113434980D01*
X131288372Y-113426321D01*
X131307282Y-113412329D01*
X131330023Y-113401989D01*
X131345148Y-113392317D01*
X131410949Y-113335618D01*
X131428137Y-113322900D01*
X131435221Y-113316796D01*
X131450338Y-113301679D01*
X131510323Y-113249993D01*
X131522125Y-113236464D01*
X131534231Y-113217787D01*
X131833382Y-112918637D01*
X131949103Y-112939041D01*
X131960064Y-112940000D01*
X132199936Y-112940000D01*
X132210897Y-112939041D01*
X132447126Y-112897387D01*
X132457753Y-112894540D01*
X132683160Y-112812498D01*
X132693132Y-112807848D01*
X132900868Y-112687912D01*
X132909881Y-112681601D01*
X133093634Y-112527413D01*
X133101413Y-112519634D01*
X133255601Y-112335881D01*
X133261912Y-112326868D01*
X133381848Y-112119132D01*
X133386498Y-112109160D01*
X133468540Y-111883753D01*
X133471387Y-111873126D01*
X133513041Y-111636897D01*
X133514000Y-111625936D01*
X133514000Y-111386064D01*
X133513041Y-111375103D01*
X133471387Y-111138874D01*
X133468540Y-111128247D01*
X133402336Y-110946354D01*
X133715363Y-111259381D01*
X133694959Y-111375103D01*
X133694000Y-111386064D01*
X133694000Y-111625936D01*
X133694959Y-111636897D01*
X133736613Y-111873126D01*
X133739460Y-111883753D01*
X133821502Y-112109160D01*
X133826152Y-112119132D01*
X133946088Y-112326868D01*
X133952399Y-112335881D01*
X134106587Y-112519634D01*
X134114366Y-112527413D01*
X134298119Y-112681601D01*
X134307132Y-112687912D01*
X134514868Y-112807848D01*
X134524840Y-112812498D01*
X134750247Y-112894540D01*
X134760874Y-112897387D01*
X134997103Y-112939041D01*
X135008064Y-112940000D01*
X135247936Y-112940000D01*
X135258897Y-112939041D01*
X135495126Y-112897387D01*
X135505753Y-112894540D01*
X135731160Y-112812498D01*
X135741132Y-112807848D01*
X135948868Y-112687912D01*
X135957881Y-112681601D01*
X136141634Y-112527413D01*
X136149413Y-112519634D01*
X136303601Y-112335881D01*
X136309912Y-112326868D01*
X136429848Y-112119132D01*
X136434498Y-112109160D01*
X136516540Y-111883753D01*
X136519387Y-111873126D01*
X136545679Y-111724017D01*
X136758321Y-111724017D01*
X136784613Y-111873125D01*
X136787460Y-111883753D01*
X136869502Y-112109160D01*
X136874152Y-112119132D01*
X136994088Y-112326868D01*
X137000399Y-112335881D01*
X137154587Y-112519634D01*
X137162366Y-112527413D01*
X137346119Y-112681601D01*
X137355132Y-112687912D01*
X137562868Y-112807848D01*
X137572840Y-112812498D01*
X137798247Y-112894540D01*
X137808874Y-112897387D01*
X137957982Y-112923680D01*
X138048000Y-112848146D01*
X138303999Y-112848146D01*
X138394017Y-112923679D01*
X138543125Y-112897387D01*
X138553753Y-112894540D01*
X138779160Y-112812498D01*
X138789132Y-112807848D01*
X138996868Y-112687912D01*
X139005881Y-112681601D01*
X139189634Y-112527413D01*
X139197413Y-112519634D01*
X139351601Y-112335881D01*
X139357912Y-112326868D01*
X139477848Y-112119132D01*
X139482498Y-112109160D01*
X139564540Y-111883753D01*
X139567387Y-111873126D01*
X139593680Y-111724018D01*
X139518146Y-111634000D01*
X138377809Y-111633999D01*
X138304000Y-111707808D01*
X138303999Y-112848146D01*
X138048000Y-112848146D01*
X138048001Y-111707809D01*
X137974192Y-111634000D01*
X136833854Y-111633999D01*
X136758321Y-111724017D01*
X136545679Y-111724017D01*
X136561041Y-111636897D01*
X136562000Y-111625936D01*
X136562000Y-111386064D01*
X136561041Y-111375103D01*
X136545680Y-111287982D01*
X136758320Y-111287982D01*
X136833854Y-111378000D01*
X137974191Y-111378001D01*
X138048000Y-111304192D01*
X138048000Y-111304191D01*
X138303999Y-111304191D01*
X138377808Y-111378000D01*
X139518146Y-111378001D01*
X139593679Y-111287983D01*
X139567387Y-111138875D01*
X139564540Y-111128247D01*
X139482498Y-110902840D01*
X139477848Y-110892868D01*
X139357912Y-110685132D01*
X139351601Y-110676119D01*
X139197413Y-110492366D01*
X139189634Y-110484587D01*
X139005881Y-110330399D01*
X138996868Y-110324088D01*
X138789132Y-110204152D01*
X138779160Y-110199502D01*
X138553753Y-110117460D01*
X138543126Y-110114613D01*
X138394018Y-110088320D01*
X138304000Y-110163854D01*
X138303999Y-111304191D01*
X138048000Y-111304191D01*
X138048001Y-110163854D01*
X137957983Y-110088321D01*
X137808875Y-110114613D01*
X137798247Y-110117460D01*
X137572840Y-110199502D01*
X137562868Y-110204152D01*
X137355132Y-110324088D01*
X137346119Y-110330399D01*
X137162366Y-110484587D01*
X137154587Y-110492366D01*
X137000399Y-110676119D01*
X136994088Y-110685132D01*
X136874152Y-110892868D01*
X136869502Y-110902840D01*
X136787460Y-111128247D01*
X136784613Y-111138874D01*
X136758320Y-111287982D01*
X136545680Y-111287982D01*
X136519387Y-111138874D01*
X136516540Y-111128247D01*
X136434498Y-110902840D01*
X136429848Y-110892868D01*
X136309912Y-110685132D01*
X136303601Y-110676119D01*
X136149413Y-110492366D01*
X136141634Y-110484587D01*
X135957881Y-110330399D01*
X135948868Y-110324088D01*
X135741132Y-110204152D01*
X135731160Y-110199502D01*
X135505753Y-110117460D01*
X135495126Y-110114613D01*
X135258897Y-110072959D01*
X135247936Y-110072000D01*
X135008064Y-110072000D01*
X134997103Y-110072959D01*
X134881381Y-110093363D01*
X131712328Y-106924311D01*
X131703176Y-106909806D01*
X131691540Y-106896134D01*
X131628296Y-106840279D01*
X131608379Y-106820361D01*
X131601605Y-106814488D01*
X131585018Y-106802057D01*
X131528115Y-106751802D01*
X131513109Y-106741945D01*
X131490894Y-106731515D01*
X131471268Y-106716806D01*
X131455520Y-106708184D01*
X131384456Y-106681543D01*
X131315568Y-106649201D01*
X131298013Y-106643892D01*
X131274744Y-106640415D01*
X131251359Y-106631648D01*
X131233824Y-106627793D01*
X131147228Y-106621357D01*
X131126057Y-106618193D01*
X131116732Y-106617500D01*
X131095328Y-106617500D01*
X131016390Y-106611634D01*
X130998478Y-106612855D01*
X130976719Y-106617500D01*
X127337369Y-106617500D01*
X127333601Y-106612119D01*
X127179413Y-106428366D01*
X127171634Y-106420587D01*
X126987881Y-106266399D01*
X126978868Y-106260088D01*
X126771132Y-106140152D01*
X126761160Y-106135502D01*
X126535753Y-106053460D01*
X126525126Y-106050613D01*
X126288897Y-106008959D01*
X126277936Y-106008000D01*
X126038064Y-106008000D01*
X126027103Y-106008959D01*
X125911382Y-106029363D01*
X125690900Y-105808882D01*
X125690900Y-105723237D01*
X125784047Y-105757140D01*
X125794674Y-105759987D01*
X126030903Y-105801641D01*
X126041864Y-105802600D01*
X126281736Y-105802600D01*
X126292697Y-105801641D01*
X126528926Y-105759987D01*
X126539553Y-105757140D01*
X126764960Y-105675098D01*
X126774932Y-105670448D01*
X126982668Y-105550512D01*
X126991681Y-105544201D01*
X127175434Y-105390013D01*
X127183213Y-105382234D01*
X127337401Y-105198481D01*
X127343712Y-105189468D01*
X127463648Y-104981732D01*
X127468298Y-104971760D01*
X127550340Y-104746353D01*
X127553187Y-104735726D01*
X127594841Y-104499497D01*
X127595800Y-104488536D01*
X127595800Y-104248664D01*
X127594841Y-104237703D01*
X127553187Y-104001474D01*
X127550340Y-103990847D01*
X127468298Y-103765440D01*
X127463648Y-103755468D01*
X127343712Y-103547732D01*
X127337401Y-103538719D01*
X127183213Y-103354966D01*
X127175434Y-103347187D01*
X127062500Y-103252423D01*
X127062500Y-102716376D01*
X127165382Y-102655046D01*
X127173801Y-102649041D01*
X127241674Y-102591684D01*
X127247937Y-102615059D01*
X127260680Y-102639539D01*
X127391790Y-102795790D01*
X127408679Y-102809961D01*
X127582920Y-102910559D01*
X127603637Y-102918100D01*
X127796338Y-102952078D01*
X127807299Y-102953037D01*
X127942896Y-102953037D01*
X127856399Y-103056119D01*
X127850088Y-103065132D01*
X127730152Y-103272868D01*
X127725502Y-103282840D01*
X127643460Y-103508247D01*
X127640613Y-103518874D01*
X127598959Y-103755103D01*
X127598000Y-103766064D01*
X127598000Y-104005936D01*
X127598959Y-104016897D01*
X127640613Y-104253126D01*
X127643460Y-104263753D01*
X127725502Y-104489160D01*
X127730152Y-104499132D01*
X127850088Y-104706868D01*
X127856399Y-104715881D01*
X128010587Y-104899634D01*
X128018366Y-104907413D01*
X128202119Y-105061601D01*
X128211132Y-105067912D01*
X128418868Y-105187848D01*
X128428840Y-105192498D01*
X128654247Y-105274540D01*
X128664874Y-105277387D01*
X128901103Y-105319041D01*
X128912064Y-105320000D01*
X129151936Y-105320000D01*
X129162897Y-105319041D01*
X129399126Y-105277387D01*
X129409753Y-105274540D01*
X129635160Y-105192498D01*
X129645132Y-105187848D01*
X129852868Y-105067912D01*
X129861881Y-105061601D01*
X130045634Y-104907413D01*
X130053413Y-104899634D01*
X130136673Y-104800409D01*
X130151020Y-104840148D01*
X130159679Y-104856313D01*
X130173671Y-104875223D01*
X130184012Y-104897965D01*
X130193683Y-104913089D01*
X130250379Y-104978887D01*
X130263100Y-104996080D01*
X130269204Y-105003163D01*
X130284322Y-105018281D01*
X130336007Y-105078265D01*
X130349536Y-105090067D01*
X130368216Y-105102175D01*
X130860233Y-105594192D01*
X130869382Y-105608693D01*
X130881018Y-105622367D01*
X130944256Y-105678216D01*
X130964179Y-105698140D01*
X130970954Y-105704013D01*
X130987548Y-105716450D01*
X131044443Y-105766698D01*
X131059449Y-105776555D01*
X131081659Y-105786983D01*
X131101292Y-105801696D01*
X131117039Y-105810317D01*
X131188098Y-105836955D01*
X131256990Y-105869300D01*
X131274544Y-105874609D01*
X131297816Y-105878087D01*
X131321201Y-105886853D01*
X131338735Y-105890708D01*
X131425328Y-105897143D01*
X131446501Y-105900308D01*
X131455827Y-105901001D01*
X131477231Y-105901001D01*
X131556169Y-105906867D01*
X131574081Y-105905646D01*
X131595840Y-105901001D01*
X136893134Y-105901001D01*
X136909853Y-105904784D01*
X136927748Y-105906224D01*
X137011933Y-105901001D01*
X137040131Y-105901001D01*
X137049075Y-105900364D01*
X137069611Y-105897422D01*
X137145362Y-105892723D01*
X137162943Y-105889083D01*
X137186022Y-105880751D01*
X137210308Y-105877273D01*
X137227539Y-105872234D01*
X137296643Y-105840815D01*
X137368206Y-105814980D01*
X137384372Y-105806321D01*
X137403282Y-105792329D01*
X137426023Y-105781989D01*
X137441148Y-105772317D01*
X137506949Y-105715618D01*
X137524137Y-105702900D01*
X137531221Y-105696796D01*
X137546338Y-105681679D01*
X137606323Y-105629993D01*
X137618125Y-105616464D01*
X137630231Y-105597787D01*
X137929382Y-105298637D01*
X138045103Y-105319041D01*
X138056064Y-105320000D01*
X138295936Y-105320000D01*
X138306897Y-105319041D01*
X138543126Y-105277387D01*
X138553753Y-105274540D01*
X138779160Y-105192498D01*
X138789132Y-105187848D01*
X138996868Y-105067912D01*
X139005881Y-105061601D01*
X139189634Y-104907413D01*
X139197413Y-104899634D01*
X139351601Y-104715881D01*
X139355369Y-104710500D01*
X139358483Y-104710500D01*
X140671163Y-106023181D01*
X140671163Y-107107258D01*
X140673319Y-107123634D01*
X140748137Y-107402859D01*
X140760880Y-107427339D01*
X140891990Y-107583590D01*
X140908879Y-107597761D01*
X141083120Y-107698359D01*
X141103837Y-107705900D01*
X141296538Y-107739878D01*
X141307499Y-107740837D01*
X142921258Y-107740837D01*
X142937634Y-107738681D01*
X143216859Y-107663863D01*
X143241339Y-107651120D01*
X143397590Y-107520010D01*
X143411761Y-107503121D01*
X143512359Y-107328880D01*
X143519900Y-107308163D01*
X143546235Y-107158806D01*
X143569156Y-107161823D01*
X144379790Y-106351191D01*
X144379790Y-106246809D01*
X143569156Y-105436177D01*
X143543358Y-105439573D01*
X143477863Y-105195142D01*
X143465120Y-105170662D01*
X143334010Y-105014410D01*
X143317121Y-105000239D01*
X143142880Y-104899641D01*
X143122163Y-104892100D01*
X142929462Y-104858122D01*
X142918501Y-104857163D01*
X141837181Y-104857163D01*
X140348328Y-103368311D01*
X140339176Y-103353806D01*
X140327540Y-103340134D01*
X140264296Y-103284279D01*
X140244379Y-103264361D01*
X140237605Y-103258488D01*
X140221018Y-103246057D01*
X140164115Y-103195802D01*
X140149109Y-103185945D01*
X140126894Y-103175515D01*
X140107268Y-103160806D01*
X140091520Y-103152184D01*
X140020456Y-103125543D01*
X139951568Y-103093201D01*
X139934013Y-103087892D01*
X139910744Y-103084415D01*
X139887359Y-103075648D01*
X139869824Y-103071793D01*
X139783228Y-103065357D01*
X139762057Y-103062193D01*
X139752732Y-103061500D01*
X139731328Y-103061500D01*
X139652390Y-103055634D01*
X139634478Y-103056855D01*
X139612719Y-103061500D01*
X139355369Y-103061500D01*
X139351601Y-103056119D01*
X139197413Y-102872366D01*
X139189634Y-102864587D01*
X139005881Y-102710399D01*
X138996868Y-102704088D01*
X138789132Y-102584152D01*
X138779160Y-102579502D01*
X138553753Y-102497460D01*
X138543126Y-102494613D01*
X138306897Y-102452959D01*
X138295936Y-102452000D01*
X138056064Y-102452000D01*
X138045103Y-102452959D01*
X137808874Y-102494613D01*
X137798247Y-102497460D01*
X137572840Y-102579502D01*
X137562868Y-102584152D01*
X137355132Y-102704088D01*
X137346119Y-102710399D01*
X137162366Y-102864587D01*
X137154587Y-102872366D01*
X137000399Y-103056119D01*
X136994088Y-103065132D01*
X136874152Y-103272868D01*
X136869502Y-103282840D01*
X136787460Y-103508247D01*
X136784613Y-103518874D01*
X136742959Y-103755103D01*
X136742000Y-103766064D01*
X136742000Y-104005936D01*
X136742959Y-104016897D01*
X136763363Y-104132618D01*
X136643981Y-104252001D01*
X136519585Y-104252001D01*
X136561041Y-104016897D01*
X136562000Y-104005936D01*
X136562000Y-103766064D01*
X136561041Y-103755103D01*
X136539868Y-103635023D01*
X136589597Y-103578716D01*
X136599454Y-103563710D01*
X136609882Y-103541500D01*
X136624595Y-103521867D01*
X136633216Y-103506120D01*
X136659854Y-103435061D01*
X136692199Y-103366169D01*
X136697508Y-103348615D01*
X136700986Y-103325343D01*
X136709752Y-103301958D01*
X136713607Y-103284424D01*
X136720042Y-103197831D01*
X136723207Y-103176658D01*
X136723900Y-103167332D01*
X136723900Y-103145928D01*
X136729766Y-103066990D01*
X136728545Y-103049078D01*
X136723900Y-103027319D01*
X136723900Y-101882473D01*
X136808590Y-101811410D01*
X136822761Y-101794521D01*
X136923359Y-101620280D01*
X136930900Y-101599563D01*
X136964878Y-101406862D01*
X136965837Y-101395901D01*
X136965837Y-100582142D01*
X136963681Y-100565766D01*
X136888863Y-100286542D01*
X136876120Y-100262062D01*
X136745010Y-100105810D01*
X136728121Y-100091639D01*
X136723900Y-100089202D01*
X136723900Y-98503118D01*
X136769219Y-98457800D01*
X136915648Y-98497035D01*
X136926704Y-98498965D01*
X137161661Y-98518695D01*
X137172884Y-98518636D01*
X137407623Y-98496447D01*
X137418659Y-98494401D01*
X137645757Y-98430993D01*
X137656255Y-98427026D01*
X137868537Y-98324406D01*
X137878167Y-98318642D01*
X138068921Y-98180052D01*
X138077378Y-98172674D01*
X138240575Y-98002494D01*
X138247592Y-97993735D01*
X138378073Y-97797345D01*
X138383429Y-97787482D01*
X138399259Y-97750900D01*
X138972402Y-97750900D01*
X138952759Y-97862303D01*
X138951800Y-97873264D01*
X138951800Y-98113136D01*
X138952759Y-98124097D01*
X138994413Y-98360326D01*
X138997260Y-98370953D01*
X139079302Y-98596360D01*
X139083952Y-98606332D01*
X139203888Y-98814068D01*
X139210199Y-98823081D01*
X139364387Y-99006834D01*
X139372166Y-99014613D01*
X139555919Y-99168801D01*
X139564932Y-99175112D01*
X139772668Y-99295048D01*
X139782640Y-99299698D01*
X140008047Y-99381740D01*
X140018674Y-99384587D01*
X140254903Y-99426241D01*
X140265864Y-99427200D01*
X140505736Y-99427200D01*
X140516697Y-99426241D01*
X140752926Y-99384587D01*
X140763553Y-99381740D01*
X140988960Y-99299698D01*
X140998932Y-99295048D01*
X141206668Y-99175112D01*
X141215681Y-99168801D01*
X141399434Y-99014613D01*
X141407213Y-99006834D01*
X141561401Y-98823081D01*
X141567712Y-98814068D01*
X141687648Y-98606332D01*
X141692298Y-98596360D01*
X141774340Y-98370953D01*
X141777187Y-98360326D01*
X141818841Y-98124097D01*
X141819800Y-98113136D01*
X141819800Y-97873264D01*
X141818841Y-97862303D01*
X141777187Y-97626074D01*
X141774340Y-97615447D01*
X141692298Y-97390040D01*
X141687648Y-97380068D01*
X141567712Y-97172332D01*
X141561401Y-97163319D01*
X141407213Y-96979566D01*
X141399434Y-96971787D01*
X141215681Y-96817599D01*
X141206668Y-96811288D01*
X140998932Y-96691352D01*
X140988960Y-96686702D01*
X140763553Y-96604660D01*
X140752926Y-96601813D01*
X140516697Y-96560159D01*
X140505736Y-96559200D01*
X140265864Y-96559200D01*
X140254903Y-96560159D01*
X140139182Y-96580563D01*
X139967326Y-96408708D01*
X139958176Y-96394206D01*
X139946540Y-96380534D01*
X139883296Y-96324679D01*
X139863379Y-96304761D01*
X139856605Y-96298888D01*
X139840018Y-96286457D01*
X139783115Y-96236202D01*
X139768109Y-96226345D01*
X139745894Y-96215915D01*
X139726268Y-96201206D01*
X139710520Y-96192584D01*
X139639456Y-96165943D01*
X139570568Y-96133601D01*
X139553013Y-96128292D01*
X139529744Y-96124815D01*
X139506359Y-96116048D01*
X139488824Y-96112193D01*
X139402228Y-96105757D01*
X139381057Y-96102593D01*
X139371732Y-96101900D01*
X139350328Y-96101900D01*
X139271390Y-96096034D01*
X139253478Y-96097255D01*
X139231719Y-96101900D01*
X138160002Y-96101900D01*
X138408995Y-96062464D01*
X138418623Y-96060153D01*
X138672499Y-95977663D01*
X138681646Y-95973874D01*
X138919492Y-95852685D01*
X138927934Y-95847512D01*
X139143894Y-95690608D01*
X139151423Y-95684178D01*
X139340178Y-95495423D01*
X139346608Y-95487894D01*
X139503512Y-95271934D01*
X139508685Y-95263492D01*
X139629874Y-95025646D01*
X139633663Y-95016499D01*
X139716153Y-94762623D01*
X139718464Y-94752995D01*
X139760222Y-94489341D01*
X139760999Y-94479470D01*
X139760999Y-94212530D01*
X139760222Y-94202659D01*
X139718464Y-93939005D01*
X139716153Y-93929377D01*
X139633663Y-93675501D01*
X139629874Y-93666354D01*
X139624088Y-93654999D01*
X141643524Y-93654999D01*
X144713840Y-96725316D01*
%TA.AperFunction,Conductor*%
G36*
X144713840Y-96725316D02*
G01*
X144564932Y-96811288D01*
X144555919Y-96817599D01*
X144372166Y-96971787D01*
X144364387Y-96979566D01*
X144210199Y-97163319D01*
X144206431Y-97168700D01*
X143907165Y-97168700D01*
X143890446Y-97164917D01*
X143872551Y-97163477D01*
X143788370Y-97168700D01*
X143760168Y-97168700D01*
X143751224Y-97169337D01*
X143730681Y-97172280D01*
X143654935Y-97176979D01*
X143637355Y-97180619D01*
X143614277Y-97188950D01*
X143589991Y-97192428D01*
X143572760Y-97197467D01*
X143503661Y-97228884D01*
X143432091Y-97254721D01*
X143415926Y-97263380D01*
X143397016Y-97277372D01*
X143374275Y-97287712D01*
X143359151Y-97297385D01*
X143293358Y-97354076D01*
X143276160Y-97366801D01*
X143269077Y-97372905D01*
X143253954Y-97388028D01*
X143193976Y-97439708D01*
X143182174Y-97453237D01*
X143170068Y-97471914D01*
X140848122Y-99793861D01*
X140748423Y-99767519D01*
X140738242Y-99765706D01*
X140486770Y-99741935D01*
X140476429Y-99741808D01*
X140224451Y-99759429D01*
X140214229Y-99760993D01*
X139968513Y-99819531D01*
X139958683Y-99822743D01*
X139725827Y-99920627D01*
X139716654Y-99925402D01*
X139502912Y-100060003D01*
X139494642Y-100066212D01*
X139305754Y-100233914D01*
X139298609Y-100241391D01*
X139139647Y-100437693D01*
X139133820Y-100446236D01*
X139009054Y-100665864D01*
X139004699Y-100675244D01*
X138917479Y-100912300D01*
X138914716Y-100922266D01*
X138867385Y-101170384D01*
X138866286Y-101180667D01*
X138860114Y-101433185D01*
X138860710Y-101443509D01*
X138895864Y-101693643D01*
X138898137Y-101703732D01*
X138973673Y-101944766D01*
X138977564Y-101954348D01*
X139091452Y-102179808D01*
X139096855Y-102188626D01*
X139246038Y-102392458D01*
X139252809Y-102400275D01*
X139433280Y-102577004D01*
X139441237Y-102583610D01*
X139648148Y-102728492D01*
X139657077Y-102733710D01*
X139884873Y-102842851D01*
X139894535Y-102846540D01*
X140137098Y-102917012D01*
X140147232Y-102919073D01*
X140398048Y-102948981D01*
X140408382Y-102949360D01*
X140660714Y-102937902D01*
X140670972Y-102936588D01*
X140918045Y-102884070D01*
X140927950Y-102881099D01*
X141163128Y-102788933D01*
X141172415Y-102784384D01*
X141389382Y-102655046D01*
X141397801Y-102649041D01*
X141590730Y-102486003D01*
X141598055Y-102478703D01*
X141733060Y-102320073D01*
X141786038Y-102392458D01*
X141792809Y-102400275D01*
X141973280Y-102577004D01*
X141981237Y-102583610D01*
X142188148Y-102728492D01*
X142197077Y-102733710D01*
X142424873Y-102842851D01*
X142434535Y-102846540D01*
X142677098Y-102917012D01*
X142687232Y-102919073D01*
X142938048Y-102948981D01*
X142948382Y-102949360D01*
X143200714Y-102937902D01*
X143210972Y-102936588D01*
X143388777Y-102898794D01*
X144979002Y-104489020D01*
X144979002Y-104907415D01*
X144743897Y-104865959D01*
X144732936Y-104865000D01*
X144493064Y-104865000D01*
X144482103Y-104865959D01*
X144245874Y-104907613D01*
X144235247Y-104910460D01*
X144009840Y-104992502D01*
X143999868Y-104997152D01*
X143766397Y-105131947D01*
X143750177Y-105255156D01*
X144794020Y-106299000D01*
X144523905Y-106569115D01*
X143750177Y-107342844D01*
X143766397Y-107466053D01*
X143999868Y-107600848D01*
X144009840Y-107605498D01*
X144235247Y-107687540D01*
X144245874Y-107690387D01*
X144482103Y-107732041D01*
X144493064Y-107733000D01*
X144732936Y-107733000D01*
X144743897Y-107732041D01*
X144870214Y-107709768D01*
X139038271Y-113541712D01*
X138818023Y-113483519D01*
X138807842Y-113481706D01*
X138556370Y-113457935D01*
X138546029Y-113457808D01*
X138294051Y-113475429D01*
X138283829Y-113476993D01*
X138038113Y-113535531D01*
X138028283Y-113538743D01*
X137795427Y-113636627D01*
X137786254Y-113641402D01*
X137572512Y-113776003D01*
X137564242Y-113782212D01*
X137375354Y-113949914D01*
X137368209Y-113957391D01*
X137261227Y-114089503D01*
X137181631Y-113986146D01*
X137174672Y-113978497D01*
X136989937Y-113806229D01*
X136981821Y-113799819D01*
X136771432Y-113660036D01*
X136762378Y-113655038D01*
X136531983Y-113551495D01*
X136522234Y-113548043D01*
X136278023Y-113483519D01*
X136267842Y-113481706D01*
X136016370Y-113457935D01*
X136006029Y-113457808D01*
X135754051Y-113475429D01*
X135743829Y-113476993D01*
X135498113Y-113535531D01*
X135488283Y-113538743D01*
X135255427Y-113636627D01*
X135246254Y-113641402D01*
X135032512Y-113776003D01*
X135024242Y-113782212D01*
X134835354Y-113949914D01*
X134828209Y-113957391D01*
X134721227Y-114089503D01*
X134641631Y-113986146D01*
X134634672Y-113978497D01*
X134449937Y-113806229D01*
X134441821Y-113799819D01*
X134231432Y-113660036D01*
X134222378Y-113655038D01*
X133991983Y-113551495D01*
X133982234Y-113548043D01*
X133738023Y-113483519D01*
X133727842Y-113481706D01*
X133662002Y-113475482D01*
X133579600Y-113550461D01*
X133579600Y-115190000D01*
X133323600Y-115190000D01*
X133323600Y-113546957D01*
X133227784Y-113471286D01*
X132958113Y-113535531D01*
X132948283Y-113538743D01*
X132715427Y-113636627D01*
X132706254Y-113641402D01*
X132492512Y-113776003D01*
X132484242Y-113782212D01*
X132447523Y-113814812D01*
X132441663Y-113792942D01*
X132428920Y-113768462D01*
X132297810Y-113612210D01*
X132280921Y-113598039D01*
X132106680Y-113497441D01*
X132085963Y-113489900D01*
X131893262Y-113455922D01*
X131882301Y-113454963D01*
X131216854Y-113454963D01*
X131272206Y-113434980D01*
X131288372Y-113426321D01*
X131307282Y-113412329D01*
X131330023Y-113401989D01*
X131345148Y-113392317D01*
X131410949Y-113335618D01*
X131428137Y-113322900D01*
X131435221Y-113316796D01*
X131450338Y-113301679D01*
X131510323Y-113249993D01*
X131522125Y-113236464D01*
X131534231Y-113217787D01*
X131833382Y-112918637D01*
X131949103Y-112939041D01*
X131960064Y-112940000D01*
X132199936Y-112940000D01*
X132210897Y-112939041D01*
X132447126Y-112897387D01*
X132457753Y-112894540D01*
X132683160Y-112812498D01*
X132693132Y-112807848D01*
X132900868Y-112687912D01*
X132909881Y-112681601D01*
X133093634Y-112527413D01*
X133101413Y-112519634D01*
X133255601Y-112335881D01*
X133261912Y-112326868D01*
X133381848Y-112119132D01*
X133386498Y-112109160D01*
X133468540Y-111883753D01*
X133471387Y-111873126D01*
X133513041Y-111636897D01*
X133514000Y-111625936D01*
X133514000Y-111386064D01*
X133513041Y-111375103D01*
X133471387Y-111138874D01*
X133468540Y-111128247D01*
X133402336Y-110946354D01*
X133715363Y-111259381D01*
X133694959Y-111375103D01*
X133694000Y-111386064D01*
X133694000Y-111625936D01*
X133694959Y-111636897D01*
X133736613Y-111873126D01*
X133739460Y-111883753D01*
X133821502Y-112109160D01*
X133826152Y-112119132D01*
X133946088Y-112326868D01*
X133952399Y-112335881D01*
X134106587Y-112519634D01*
X134114366Y-112527413D01*
X134298119Y-112681601D01*
X134307132Y-112687912D01*
X134514868Y-112807848D01*
X134524840Y-112812498D01*
X134750247Y-112894540D01*
X134760874Y-112897387D01*
X134997103Y-112939041D01*
X135008064Y-112940000D01*
X135247936Y-112940000D01*
X135258897Y-112939041D01*
X135495126Y-112897387D01*
X135505753Y-112894540D01*
X135731160Y-112812498D01*
X135741132Y-112807848D01*
X135948868Y-112687912D01*
X135957881Y-112681601D01*
X136141634Y-112527413D01*
X136149413Y-112519634D01*
X136303601Y-112335881D01*
X136309912Y-112326868D01*
X136429848Y-112119132D01*
X136434498Y-112109160D01*
X136516540Y-111883753D01*
X136519387Y-111873126D01*
X136545679Y-111724017D01*
X136758321Y-111724017D01*
X136784613Y-111873125D01*
X136787460Y-111883753D01*
X136869502Y-112109160D01*
X136874152Y-112119132D01*
X136994088Y-112326868D01*
X137000399Y-112335881D01*
X137154587Y-112519634D01*
X137162366Y-112527413D01*
X137346119Y-112681601D01*
X137355132Y-112687912D01*
X137562868Y-112807848D01*
X137572840Y-112812498D01*
X137798247Y-112894540D01*
X137808874Y-112897387D01*
X137957982Y-112923680D01*
X138048000Y-112848146D01*
X138303999Y-112848146D01*
X138394017Y-112923679D01*
X138543125Y-112897387D01*
X138553753Y-112894540D01*
X138779160Y-112812498D01*
X138789132Y-112807848D01*
X138996868Y-112687912D01*
X139005881Y-112681601D01*
X139189634Y-112527413D01*
X139197413Y-112519634D01*
X139351601Y-112335881D01*
X139357912Y-112326868D01*
X139477848Y-112119132D01*
X139482498Y-112109160D01*
X139564540Y-111883753D01*
X139567387Y-111873126D01*
X139593680Y-111724018D01*
X139518146Y-111634000D01*
X138377809Y-111633999D01*
X138304000Y-111707808D01*
X138303999Y-112848146D01*
X138048000Y-112848146D01*
X138048001Y-111707809D01*
X137974192Y-111634000D01*
X136833854Y-111633999D01*
X136758321Y-111724017D01*
X136545679Y-111724017D01*
X136561041Y-111636897D01*
X136562000Y-111625936D01*
X136562000Y-111386064D01*
X136561041Y-111375103D01*
X136545680Y-111287982D01*
X136758320Y-111287982D01*
X136833854Y-111378000D01*
X137974191Y-111378001D01*
X138048000Y-111304192D01*
X138048000Y-111304191D01*
X138303999Y-111304191D01*
X138377808Y-111378000D01*
X139518146Y-111378001D01*
X139593679Y-111287983D01*
X139567387Y-111138875D01*
X139564540Y-111128247D01*
X139482498Y-110902840D01*
X139477848Y-110892868D01*
X139357912Y-110685132D01*
X139351601Y-110676119D01*
X139197413Y-110492366D01*
X139189634Y-110484587D01*
X139005881Y-110330399D01*
X138996868Y-110324088D01*
X138789132Y-110204152D01*
X138779160Y-110199502D01*
X138553753Y-110117460D01*
X138543126Y-110114613D01*
X138394018Y-110088320D01*
X138304000Y-110163854D01*
X138303999Y-111304191D01*
X138048000Y-111304191D01*
X138048001Y-110163854D01*
X137957983Y-110088321D01*
X137808875Y-110114613D01*
X137798247Y-110117460D01*
X137572840Y-110199502D01*
X137562868Y-110204152D01*
X137355132Y-110324088D01*
X137346119Y-110330399D01*
X137162366Y-110484587D01*
X137154587Y-110492366D01*
X137000399Y-110676119D01*
X136994088Y-110685132D01*
X136874152Y-110892868D01*
X136869502Y-110902840D01*
X136787460Y-111128247D01*
X136784613Y-111138874D01*
X136758320Y-111287982D01*
X136545680Y-111287982D01*
X136519387Y-111138874D01*
X136516540Y-111128247D01*
X136434498Y-110902840D01*
X136429848Y-110892868D01*
X136309912Y-110685132D01*
X136303601Y-110676119D01*
X136149413Y-110492366D01*
X136141634Y-110484587D01*
X135957881Y-110330399D01*
X135948868Y-110324088D01*
X135741132Y-110204152D01*
X135731160Y-110199502D01*
X135505753Y-110117460D01*
X135495126Y-110114613D01*
X135258897Y-110072959D01*
X135247936Y-110072000D01*
X135008064Y-110072000D01*
X134997103Y-110072959D01*
X134881381Y-110093363D01*
X131712328Y-106924311D01*
X131703176Y-106909806D01*
X131691540Y-106896134D01*
X131628296Y-106840279D01*
X131608379Y-106820361D01*
X131601605Y-106814488D01*
X131585018Y-106802057D01*
X131528115Y-106751802D01*
X131513109Y-106741945D01*
X131490894Y-106731515D01*
X131471268Y-106716806D01*
X131455520Y-106708184D01*
X131384456Y-106681543D01*
X131315568Y-106649201D01*
X131298013Y-106643892D01*
X131274744Y-106640415D01*
X131251359Y-106631648D01*
X131233824Y-106627793D01*
X131147228Y-106621357D01*
X131126057Y-106618193D01*
X131116732Y-106617500D01*
X131095328Y-106617500D01*
X131016390Y-106611634D01*
X130998478Y-106612855D01*
X130976719Y-106617500D01*
X127337369Y-106617500D01*
X127333601Y-106612119D01*
X127179413Y-106428366D01*
X127171634Y-106420587D01*
X126987881Y-106266399D01*
X126978868Y-106260088D01*
X126771132Y-106140152D01*
X126761160Y-106135502D01*
X126535753Y-106053460D01*
X126525126Y-106050613D01*
X126288897Y-106008959D01*
X126277936Y-106008000D01*
X126038064Y-106008000D01*
X126027103Y-106008959D01*
X125911382Y-106029363D01*
X125690900Y-105808882D01*
X125690900Y-105723237D01*
X125784047Y-105757140D01*
X125794674Y-105759987D01*
X126030903Y-105801641D01*
X126041864Y-105802600D01*
X126281736Y-105802600D01*
X126292697Y-105801641D01*
X126528926Y-105759987D01*
X126539553Y-105757140D01*
X126764960Y-105675098D01*
X126774932Y-105670448D01*
X126982668Y-105550512D01*
X126991681Y-105544201D01*
X127175434Y-105390013D01*
X127183213Y-105382234D01*
X127337401Y-105198481D01*
X127343712Y-105189468D01*
X127463648Y-104981732D01*
X127468298Y-104971760D01*
X127550340Y-104746353D01*
X127553187Y-104735726D01*
X127594841Y-104499497D01*
X127595800Y-104488536D01*
X127595800Y-104248664D01*
X127594841Y-104237703D01*
X127553187Y-104001474D01*
X127550340Y-103990847D01*
X127468298Y-103765440D01*
X127463648Y-103755468D01*
X127343712Y-103547732D01*
X127337401Y-103538719D01*
X127183213Y-103354966D01*
X127175434Y-103347187D01*
X127062500Y-103252423D01*
X127062500Y-102716376D01*
X127165382Y-102655046D01*
X127173801Y-102649041D01*
X127241674Y-102591684D01*
X127247937Y-102615059D01*
X127260680Y-102639539D01*
X127391790Y-102795790D01*
X127408679Y-102809961D01*
X127582920Y-102910559D01*
X127603637Y-102918100D01*
X127796338Y-102952078D01*
X127807299Y-102953037D01*
X127942896Y-102953037D01*
X127856399Y-103056119D01*
X127850088Y-103065132D01*
X127730152Y-103272868D01*
X127725502Y-103282840D01*
X127643460Y-103508247D01*
X127640613Y-103518874D01*
X127598959Y-103755103D01*
X127598000Y-103766064D01*
X127598000Y-104005936D01*
X127598959Y-104016897D01*
X127640613Y-104253126D01*
X127643460Y-104263753D01*
X127725502Y-104489160D01*
X127730152Y-104499132D01*
X127850088Y-104706868D01*
X127856399Y-104715881D01*
X128010587Y-104899634D01*
X128018366Y-104907413D01*
X128202119Y-105061601D01*
X128211132Y-105067912D01*
X128418868Y-105187848D01*
X128428840Y-105192498D01*
X128654247Y-105274540D01*
X128664874Y-105277387D01*
X128901103Y-105319041D01*
X128912064Y-105320000D01*
X129151936Y-105320000D01*
X129162897Y-105319041D01*
X129399126Y-105277387D01*
X129409753Y-105274540D01*
X129635160Y-105192498D01*
X129645132Y-105187848D01*
X129852868Y-105067912D01*
X129861881Y-105061601D01*
X130045634Y-104907413D01*
X130053413Y-104899634D01*
X130136673Y-104800409D01*
X130151020Y-104840148D01*
X130159679Y-104856313D01*
X130173671Y-104875223D01*
X130184012Y-104897965D01*
X130193683Y-104913089D01*
X130250379Y-104978887D01*
X130263100Y-104996080D01*
X130269204Y-105003163D01*
X130284322Y-105018281D01*
X130336007Y-105078265D01*
X130349536Y-105090067D01*
X130368216Y-105102175D01*
X130860233Y-105594192D01*
X130869382Y-105608693D01*
X130881018Y-105622367D01*
X130944256Y-105678216D01*
X130964179Y-105698140D01*
X130970954Y-105704013D01*
X130987548Y-105716450D01*
X131044443Y-105766698D01*
X131059449Y-105776555D01*
X131081659Y-105786983D01*
X131101292Y-105801696D01*
X131117039Y-105810317D01*
X131188098Y-105836955D01*
X131256990Y-105869300D01*
X131274544Y-105874609D01*
X131297816Y-105878087D01*
X131321201Y-105886853D01*
X131338735Y-105890708D01*
X131425328Y-105897143D01*
X131446501Y-105900308D01*
X131455827Y-105901001D01*
X131477231Y-105901001D01*
X131556169Y-105906867D01*
X131574081Y-105905646D01*
X131595840Y-105901001D01*
X136893134Y-105901001D01*
X136909853Y-105904784D01*
X136927748Y-105906224D01*
X137011933Y-105901001D01*
X137040131Y-105901001D01*
X137049075Y-105900364D01*
X137069611Y-105897422D01*
X137145362Y-105892723D01*
X137162943Y-105889083D01*
X137186022Y-105880751D01*
X137210308Y-105877273D01*
X137227539Y-105872234D01*
X137296643Y-105840815D01*
X137368206Y-105814980D01*
X137384372Y-105806321D01*
X137403282Y-105792329D01*
X137426023Y-105781989D01*
X137441148Y-105772317D01*
X137506949Y-105715618D01*
X137524137Y-105702900D01*
X137531221Y-105696796D01*
X137546338Y-105681679D01*
X137606323Y-105629993D01*
X137618125Y-105616464D01*
X137630231Y-105597787D01*
X137929382Y-105298637D01*
X138045103Y-105319041D01*
X138056064Y-105320000D01*
X138295936Y-105320000D01*
X138306897Y-105319041D01*
X138543126Y-105277387D01*
X138553753Y-105274540D01*
X138779160Y-105192498D01*
X138789132Y-105187848D01*
X138996868Y-105067912D01*
X139005881Y-105061601D01*
X139189634Y-104907413D01*
X139197413Y-104899634D01*
X139351601Y-104715881D01*
X139355369Y-104710500D01*
X139358483Y-104710500D01*
X140671163Y-106023181D01*
X140671163Y-107107258D01*
X140673319Y-107123634D01*
X140748137Y-107402859D01*
X140760880Y-107427339D01*
X140891990Y-107583590D01*
X140908879Y-107597761D01*
X141083120Y-107698359D01*
X141103837Y-107705900D01*
X141296538Y-107739878D01*
X141307499Y-107740837D01*
X142921258Y-107740837D01*
X142937634Y-107738681D01*
X143216859Y-107663863D01*
X143241339Y-107651120D01*
X143397590Y-107520010D01*
X143411761Y-107503121D01*
X143512359Y-107328880D01*
X143519900Y-107308163D01*
X143546235Y-107158806D01*
X143569156Y-107161823D01*
X144379790Y-106351191D01*
X144379790Y-106246809D01*
X143569156Y-105436177D01*
X143543358Y-105439573D01*
X143477863Y-105195142D01*
X143465120Y-105170662D01*
X143334010Y-105014410D01*
X143317121Y-105000239D01*
X143142880Y-104899641D01*
X143122163Y-104892100D01*
X142929462Y-104858122D01*
X142918501Y-104857163D01*
X141837181Y-104857163D01*
X140348328Y-103368311D01*
X140339176Y-103353806D01*
X140327540Y-103340134D01*
X140264296Y-103284279D01*
X140244379Y-103264361D01*
X140237605Y-103258488D01*
X140221018Y-103246057D01*
X140164115Y-103195802D01*
X140149109Y-103185945D01*
X140126894Y-103175515D01*
X140107268Y-103160806D01*
X140091520Y-103152184D01*
X140020456Y-103125543D01*
X139951568Y-103093201D01*
X139934013Y-103087892D01*
X139910744Y-103084415D01*
X139887359Y-103075648D01*
X139869824Y-103071793D01*
X139783228Y-103065357D01*
X139762057Y-103062193D01*
X139752732Y-103061500D01*
X139731328Y-103061500D01*
X139652390Y-103055634D01*
X139634478Y-103056855D01*
X139612719Y-103061500D01*
X139355369Y-103061500D01*
X139351601Y-103056119D01*
X139197413Y-102872366D01*
X139189634Y-102864587D01*
X139005881Y-102710399D01*
X138996868Y-102704088D01*
X138789132Y-102584152D01*
X138779160Y-102579502D01*
X138553753Y-102497460D01*
X138543126Y-102494613D01*
X138306897Y-102452959D01*
X138295936Y-102452000D01*
X138056064Y-102452000D01*
X138045103Y-102452959D01*
X137808874Y-102494613D01*
X137798247Y-102497460D01*
X137572840Y-102579502D01*
X137562868Y-102584152D01*
X137355132Y-102704088D01*
X137346119Y-102710399D01*
X137162366Y-102864587D01*
X137154587Y-102872366D01*
X137000399Y-103056119D01*
X136994088Y-103065132D01*
X136874152Y-103272868D01*
X136869502Y-103282840D01*
X136787460Y-103508247D01*
X136784613Y-103518874D01*
X136742959Y-103755103D01*
X136742000Y-103766064D01*
X136742000Y-104005936D01*
X136742959Y-104016897D01*
X136763363Y-104132618D01*
X136643981Y-104252001D01*
X136519585Y-104252001D01*
X136561041Y-104016897D01*
X136562000Y-104005936D01*
X136562000Y-103766064D01*
X136561041Y-103755103D01*
X136539868Y-103635023D01*
X136589597Y-103578716D01*
X136599454Y-103563710D01*
X136609882Y-103541500D01*
X136624595Y-103521867D01*
X136633216Y-103506120D01*
X136659854Y-103435061D01*
X136692199Y-103366169D01*
X136697508Y-103348615D01*
X136700986Y-103325343D01*
X136709752Y-103301958D01*
X136713607Y-103284424D01*
X136720042Y-103197831D01*
X136723207Y-103176658D01*
X136723900Y-103167332D01*
X136723900Y-103145928D01*
X136729766Y-103066990D01*
X136728545Y-103049078D01*
X136723900Y-103027319D01*
X136723900Y-101882473D01*
X136808590Y-101811410D01*
X136822761Y-101794521D01*
X136923359Y-101620280D01*
X136930900Y-101599563D01*
X136964878Y-101406862D01*
X136965837Y-101395901D01*
X136965837Y-100582142D01*
X136963681Y-100565766D01*
X136888863Y-100286542D01*
X136876120Y-100262062D01*
X136745010Y-100105810D01*
X136728121Y-100091639D01*
X136723900Y-100089202D01*
X136723900Y-98503118D01*
X136769219Y-98457800D01*
X136915648Y-98497035D01*
X136926704Y-98498965D01*
X137161661Y-98518695D01*
X137172884Y-98518636D01*
X137407623Y-98496447D01*
X137418659Y-98494401D01*
X137645757Y-98430993D01*
X137656255Y-98427026D01*
X137868537Y-98324406D01*
X137878167Y-98318642D01*
X138068921Y-98180052D01*
X138077378Y-98172674D01*
X138240575Y-98002494D01*
X138247592Y-97993735D01*
X138378073Y-97797345D01*
X138383429Y-97787482D01*
X138399259Y-97750900D01*
X138972402Y-97750900D01*
X138952759Y-97862303D01*
X138951800Y-97873264D01*
X138951800Y-98113136D01*
X138952759Y-98124097D01*
X138994413Y-98360326D01*
X138997260Y-98370953D01*
X139079302Y-98596360D01*
X139083952Y-98606332D01*
X139203888Y-98814068D01*
X139210199Y-98823081D01*
X139364387Y-99006834D01*
X139372166Y-99014613D01*
X139555919Y-99168801D01*
X139564932Y-99175112D01*
X139772668Y-99295048D01*
X139782640Y-99299698D01*
X140008047Y-99381740D01*
X140018674Y-99384587D01*
X140254903Y-99426241D01*
X140265864Y-99427200D01*
X140505736Y-99427200D01*
X140516697Y-99426241D01*
X140752926Y-99384587D01*
X140763553Y-99381740D01*
X140988960Y-99299698D01*
X140998932Y-99295048D01*
X141206668Y-99175112D01*
X141215681Y-99168801D01*
X141399434Y-99014613D01*
X141407213Y-99006834D01*
X141561401Y-98823081D01*
X141567712Y-98814068D01*
X141687648Y-98606332D01*
X141692298Y-98596360D01*
X141774340Y-98370953D01*
X141777187Y-98360326D01*
X141818841Y-98124097D01*
X141819800Y-98113136D01*
X141819800Y-97873264D01*
X141818841Y-97862303D01*
X141777187Y-97626074D01*
X141774340Y-97615447D01*
X141692298Y-97390040D01*
X141687648Y-97380068D01*
X141567712Y-97172332D01*
X141561401Y-97163319D01*
X141407213Y-96979566D01*
X141399434Y-96971787D01*
X141215681Y-96817599D01*
X141206668Y-96811288D01*
X140998932Y-96691352D01*
X140988960Y-96686702D01*
X140763553Y-96604660D01*
X140752926Y-96601813D01*
X140516697Y-96560159D01*
X140505736Y-96559200D01*
X140265864Y-96559200D01*
X140254903Y-96560159D01*
X140139182Y-96580563D01*
X139967326Y-96408708D01*
X139958176Y-96394206D01*
X139946540Y-96380534D01*
X139883296Y-96324679D01*
X139863379Y-96304761D01*
X139856605Y-96298888D01*
X139840018Y-96286457D01*
X139783115Y-96236202D01*
X139768109Y-96226345D01*
X139745894Y-96215915D01*
X139726268Y-96201206D01*
X139710520Y-96192584D01*
X139639456Y-96165943D01*
X139570568Y-96133601D01*
X139553013Y-96128292D01*
X139529744Y-96124815D01*
X139506359Y-96116048D01*
X139488824Y-96112193D01*
X139402228Y-96105757D01*
X139381057Y-96102593D01*
X139371732Y-96101900D01*
X139350328Y-96101900D01*
X139271390Y-96096034D01*
X139253478Y-96097255D01*
X139231719Y-96101900D01*
X138160002Y-96101900D01*
X138408995Y-96062464D01*
X138418623Y-96060153D01*
X138672499Y-95977663D01*
X138681646Y-95973874D01*
X138919492Y-95852685D01*
X138927934Y-95847512D01*
X139143894Y-95690608D01*
X139151423Y-95684178D01*
X139340178Y-95495423D01*
X139346608Y-95487894D01*
X139503512Y-95271934D01*
X139508685Y-95263492D01*
X139629874Y-95025646D01*
X139633663Y-95016499D01*
X139716153Y-94762623D01*
X139718464Y-94752995D01*
X139760222Y-94489341D01*
X139760999Y-94479470D01*
X139760999Y-94212530D01*
X139760222Y-94202659D01*
X139718464Y-93939005D01*
X139716153Y-93929377D01*
X139633663Y-93675501D01*
X139629874Y-93666354D01*
X139624088Y-93654999D01*
X141643524Y-93654999D01*
X144713840Y-96725316D01*
G37*
%TD.AperFunction*%
X123719277Y-95268895D02*
X123683411Y-95298990D01*
X123669239Y-95315879D01*
X123568641Y-95490120D01*
X123561100Y-95510837D01*
X123527122Y-95703538D01*
X123526163Y-95714499D01*
X123526163Y-96795819D01*
X121824608Y-98497375D01*
X121810106Y-98506525D01*
X121796434Y-98518161D01*
X121740587Y-98581396D01*
X121720660Y-98601322D01*
X121714787Y-98608096D01*
X121702350Y-98624691D01*
X121652102Y-98681586D01*
X121642245Y-98696592D01*
X121631817Y-98718804D01*
X121617105Y-98738433D01*
X121608483Y-98754181D01*
X121581838Y-98825255D01*
X121549501Y-98894132D01*
X121544193Y-98911685D01*
X121540715Y-98934953D01*
X121531946Y-98958345D01*
X121528092Y-98975878D01*
X121521655Y-99062484D01*
X121518493Y-99083644D01*
X121517800Y-99092969D01*
X121517800Y-99114360D01*
X121511933Y-99193311D01*
X121513154Y-99211222D01*
X121517800Y-99232987D01*
X121517799Y-101904372D01*
X121514016Y-101921091D01*
X121512576Y-101938986D01*
X121517799Y-102023171D01*
X121517799Y-102051368D01*
X121518436Y-102060312D01*
X121521378Y-102080847D01*
X121526077Y-102156600D01*
X121529717Y-102174180D01*
X121538049Y-102197260D01*
X121541527Y-102221546D01*
X121546566Y-102238776D01*
X121577981Y-102307872D01*
X121603820Y-102379444D01*
X121612479Y-102395609D01*
X121626471Y-102414519D01*
X121636812Y-102437261D01*
X121646483Y-102452385D01*
X121703179Y-102518183D01*
X121715900Y-102535376D01*
X121722004Y-102542459D01*
X121737122Y-102557577D01*
X121788807Y-102617561D01*
X121802336Y-102629363D01*
X121821016Y-102641471D01*
X122973636Y-103794092D01*
X122982786Y-103808594D01*
X122994422Y-103822266D01*
X123057658Y-103878114D01*
X123077582Y-103898039D01*
X123084357Y-103903912D01*
X123100951Y-103916349D01*
X123157846Y-103966597D01*
X123172852Y-103976454D01*
X123195062Y-103986882D01*
X123214695Y-104001595D01*
X123230442Y-104010216D01*
X123301501Y-104036854D01*
X123370393Y-104069199D01*
X123387947Y-104074508D01*
X123411219Y-104077986D01*
X123434604Y-104086752D01*
X123452138Y-104090607D01*
X123538731Y-104097042D01*
X123559904Y-104100207D01*
X123569230Y-104100900D01*
X123590634Y-104100900D01*
X123669573Y-104106766D01*
X123687485Y-104105545D01*
X123709244Y-104100900D01*
X123864482Y-104100900D01*
X124041901Y-104278319D01*
X124041900Y-106058035D01*
X124038117Y-106074754D01*
X124036677Y-106092649D01*
X124041900Y-106176834D01*
X124041900Y-106205031D01*
X124042537Y-106213975D01*
X124045479Y-106234510D01*
X124050178Y-106310263D01*
X124053818Y-106327843D01*
X124062150Y-106350923D01*
X124065628Y-106375209D01*
X124070667Y-106392439D01*
X124102082Y-106461535D01*
X124127921Y-106533107D01*
X124136580Y-106549272D01*
X124150572Y-106568182D01*
X124160913Y-106590924D01*
X124170584Y-106606048D01*
X124227280Y-106671846D01*
X124240001Y-106689039D01*
X124246105Y-106696122D01*
X124261223Y-106711240D01*
X124312908Y-106771224D01*
X124326437Y-106783026D01*
X124345114Y-106795132D01*
X124745363Y-107195382D01*
X124724959Y-107311103D01*
X124724000Y-107322064D01*
X124724000Y-107561936D01*
X124724959Y-107572897D01*
X124766613Y-107809126D01*
X124769460Y-107819753D01*
X124851502Y-108045160D01*
X124856152Y-108055132D01*
X124976088Y-108262868D01*
X124982399Y-108271881D01*
X125136587Y-108455634D01*
X125144366Y-108463413D01*
X125328119Y-108617601D01*
X125337132Y-108623912D01*
X125544868Y-108743848D01*
X125554840Y-108748498D01*
X125780247Y-108830540D01*
X125790874Y-108833387D01*
X126027103Y-108875041D01*
X126038064Y-108876000D01*
X126277936Y-108876000D01*
X126288897Y-108875041D01*
X126525126Y-108833387D01*
X126535753Y-108830540D01*
X126761160Y-108748498D01*
X126771132Y-108743848D01*
X126978868Y-108623912D01*
X126987881Y-108617601D01*
X127171634Y-108463413D01*
X127179413Y-108455634D01*
X127333601Y-108271881D01*
X127337369Y-108266500D01*
X130722483Y-108266500D01*
X132639647Y-110183664D01*
X132457753Y-110117460D01*
X132447126Y-110114613D01*
X132210897Y-110072959D01*
X132199936Y-110072000D01*
X131960064Y-110072000D01*
X131949103Y-110072959D01*
X131712874Y-110114613D01*
X131702247Y-110117460D01*
X131476840Y-110199502D01*
X131466868Y-110204152D01*
X131259132Y-110324088D01*
X131250119Y-110330399D01*
X131066366Y-110484587D01*
X131058587Y-110492366D01*
X130904399Y-110676119D01*
X130898088Y-110685132D01*
X130778152Y-110892868D01*
X130773502Y-110902840D01*
X130691460Y-111128247D01*
X130688613Y-111138874D01*
X130646959Y-111375103D01*
X130646000Y-111386064D01*
X130646000Y-111625936D01*
X130646959Y-111636897D01*
X130667363Y-111752618D01*
X130547981Y-111872001D01*
X130423585Y-111872001D01*
X130449680Y-111724018D01*
X130374146Y-111634000D01*
X129233808Y-111633999D01*
X129233807Y-111634000D01*
X127689854Y-111633999D01*
X127614321Y-111724017D01*
X127640415Y-111872001D01*
X126693290Y-111872001D01*
X126761160Y-111847298D01*
X126771132Y-111842648D01*
X127004603Y-111707853D01*
X127020823Y-111584644D01*
X126210191Y-110774010D01*
X126105809Y-110774010D01*
X125295177Y-111584644D01*
X125311397Y-111707853D01*
X125544868Y-111842648D01*
X125554840Y-111847298D01*
X125622710Y-111872001D01*
X122893220Y-111872001D01*
X122355642Y-111334423D01*
X122459848Y-111153932D01*
X122464498Y-111143960D01*
X122546540Y-110918553D01*
X122549387Y-110907926D01*
X122591041Y-110671697D01*
X122592000Y-110660736D01*
X122592000Y-110420864D01*
X124724000Y-110420864D01*
X124724000Y-110660736D01*
X124724959Y-110671697D01*
X124766613Y-110907926D01*
X124769460Y-110918553D01*
X124851502Y-111143960D01*
X124856152Y-111153932D01*
X124990947Y-111387403D01*
X125114156Y-111403623D01*
X125924790Y-110592991D01*
X125924790Y-110488609D01*
X126391210Y-110488609D01*
X126391210Y-110592991D01*
X127201844Y-111403623D01*
X127325053Y-111387403D01*
X127382453Y-111287982D01*
X127614320Y-111287982D01*
X127689854Y-111378000D01*
X128830191Y-111378001D01*
X128904000Y-111304192D01*
X128904000Y-111304191D01*
X129159999Y-111304191D01*
X129233808Y-111378000D01*
X130374146Y-111378001D01*
X130449679Y-111287983D01*
X130423387Y-111138875D01*
X130420540Y-111128247D01*
X130338498Y-110902840D01*
X130333848Y-110892868D01*
X130213912Y-110685132D01*
X130207601Y-110676119D01*
X130053413Y-110492366D01*
X130045634Y-110484587D01*
X129861881Y-110330399D01*
X129852868Y-110324088D01*
X129645132Y-110204152D01*
X129635160Y-110199502D01*
X129409753Y-110117460D01*
X129399126Y-110114613D01*
X129250018Y-110088320D01*
X129160000Y-110163854D01*
X129159999Y-111304191D01*
X128904000Y-111304191D01*
X128904001Y-110163854D01*
X128813983Y-110088321D01*
X128664875Y-110114613D01*
X128654247Y-110117460D01*
X128428840Y-110199502D01*
X128418868Y-110204152D01*
X128211132Y-110324088D01*
X128202119Y-110330399D01*
X128018366Y-110484587D01*
X128010587Y-110492366D01*
X127856399Y-110676119D01*
X127850088Y-110685132D01*
X127730152Y-110892868D01*
X127725502Y-110902840D01*
X127643460Y-111128247D01*
X127640613Y-111138874D01*
X127614320Y-111287982D01*
X127382453Y-111287982D01*
X127459848Y-111153932D01*
X127464498Y-111143960D01*
X127546540Y-110918553D01*
X127549387Y-110907926D01*
X127591041Y-110671697D01*
X127592000Y-110660736D01*
X127592000Y-110420864D01*
X127591041Y-110409903D01*
X127549387Y-110173674D01*
X127546540Y-110163047D01*
X127464498Y-109937640D01*
X127459848Y-109927668D01*
X127325053Y-109694197D01*
X127201844Y-109677977D01*
X126391210Y-110488609D01*
X125924790Y-110488609D01*
X125114156Y-109677977D01*
X124990947Y-109694197D01*
X124856152Y-109927668D01*
X124851502Y-109937640D01*
X124769460Y-110163047D01*
X124766613Y-110173674D01*
X124724959Y-110409903D01*
X124724000Y-110420864D01*
X122592000Y-110420864D01*
X122591041Y-110409903D01*
X122570637Y-110294182D01*
X122866196Y-109998623D01*
X122880694Y-109989475D01*
X122894366Y-109977839D01*
X122950202Y-109914617D01*
X122970141Y-109894679D01*
X122976014Y-109887904D01*
X122988457Y-109871302D01*
X123038698Y-109814415D01*
X123048554Y-109799411D01*
X123058985Y-109777196D01*
X123073697Y-109757563D01*
X123082317Y-109741818D01*
X123108956Y-109670759D01*
X123141300Y-109601868D01*
X123146609Y-109584312D01*
X123150085Y-109561048D01*
X123158854Y-109537660D01*
X123162709Y-109520124D01*
X123164430Y-109496956D01*
X125295177Y-109496956D01*
X126105809Y-110307590D01*
X126210191Y-110307590D01*
X127020823Y-109496956D01*
X127004603Y-109373747D01*
X126771132Y-109238952D01*
X126761160Y-109234302D01*
X126535753Y-109152260D01*
X126525126Y-109149413D01*
X126288897Y-109107759D01*
X126277936Y-109106800D01*
X126038064Y-109106800D01*
X126027103Y-109107759D01*
X125790874Y-109149413D01*
X125780247Y-109152260D01*
X125554840Y-109234302D01*
X125544868Y-109238952D01*
X125311397Y-109373747D01*
X125295177Y-109496956D01*
X123164430Y-109496956D01*
X123169146Y-109433516D01*
X123172308Y-109412356D01*
X123173001Y-109403031D01*
X123173001Y-109381640D01*
X123178868Y-109302688D01*
X123177647Y-109284776D01*
X123173001Y-109263012D01*
X123173001Y-105647666D01*
X123176784Y-105630947D01*
X123178224Y-105613052D01*
X123173001Y-105528866D01*
X123173001Y-105500669D01*
X123172364Y-105491725D01*
X123169422Y-105471190D01*
X123164724Y-105395438D01*
X123161083Y-105377858D01*
X123152751Y-105354778D01*
X123149273Y-105330490D01*
X123144234Y-105313260D01*
X123112818Y-105244164D01*
X123086981Y-105172593D01*
X123078321Y-105156427D01*
X123064328Y-105137517D01*
X123053989Y-105114777D01*
X123044317Y-105099653D01*
X122987638Y-105033873D01*
X122974902Y-105016662D01*
X122968798Y-105009578D01*
X122953665Y-104994446D01*
X122901993Y-104934477D01*
X122888464Y-104922675D01*
X122869790Y-104910571D01*
X122574437Y-104615218D01*
X122594841Y-104499497D01*
X122595800Y-104488536D01*
X122595800Y-104248664D01*
X122594841Y-104237703D01*
X122553187Y-104001474D01*
X122550340Y-103990847D01*
X122468298Y-103765440D01*
X122463648Y-103755468D01*
X122343712Y-103547732D01*
X122337401Y-103538719D01*
X122183213Y-103354966D01*
X122175434Y-103347187D01*
X121991681Y-103192999D01*
X121982668Y-103186688D01*
X121774932Y-103066752D01*
X121764960Y-103062102D01*
X121539553Y-102980060D01*
X121528926Y-102977213D01*
X121292697Y-102935559D01*
X121281736Y-102934600D01*
X121041864Y-102934600D01*
X121030903Y-102935559D01*
X120794674Y-102977213D01*
X120784047Y-102980060D01*
X120558640Y-103062102D01*
X120548668Y-103066752D01*
X120340932Y-103186688D01*
X120331919Y-103192999D01*
X120273224Y-103242250D01*
X120273224Y-95819292D01*
X120312066Y-95847512D01*
X120320508Y-95852685D01*
X120558354Y-95973874D01*
X120567501Y-95977663D01*
X120821377Y-96060153D01*
X120831005Y-96062464D01*
X121094659Y-96104222D01*
X121104530Y-96104999D01*
X121371470Y-96104999D01*
X121381341Y-96104222D01*
X121644995Y-96062464D01*
X121654623Y-96060153D01*
X121908499Y-95977663D01*
X121917646Y-95973874D01*
X122155492Y-95852685D01*
X122163934Y-95847512D01*
X122379894Y-95690608D01*
X122387423Y-95684178D01*
X122576178Y-95495423D01*
X122582608Y-95487894D01*
X122739512Y-95271934D01*
X122744685Y-95263492D01*
X122865874Y-95025646D01*
X122869663Y-95016499D01*
X122952153Y-94762623D01*
X122954464Y-94752995D01*
X122988497Y-94538115D01*
X123719277Y-95268895D01*
%TA.AperFunction,Conductor*%
G36*
X123719277Y-95268895D02*
G01*
X123683411Y-95298990D01*
X123669239Y-95315879D01*
X123568641Y-95490120D01*
X123561100Y-95510837D01*
X123527122Y-95703538D01*
X123526163Y-95714499D01*
X123526163Y-96795819D01*
X121824608Y-98497375D01*
X121810106Y-98506525D01*
X121796434Y-98518161D01*
X121740587Y-98581396D01*
X121720660Y-98601322D01*
X121714787Y-98608096D01*
X121702350Y-98624691D01*
X121652102Y-98681586D01*
X121642245Y-98696592D01*
X121631817Y-98718804D01*
X121617105Y-98738433D01*
X121608483Y-98754181D01*
X121581838Y-98825255D01*
X121549501Y-98894132D01*
X121544193Y-98911685D01*
X121540715Y-98934953D01*
X121531946Y-98958345D01*
X121528092Y-98975878D01*
X121521655Y-99062484D01*
X121518493Y-99083644D01*
X121517800Y-99092969D01*
X121517800Y-99114360D01*
X121511933Y-99193311D01*
X121513154Y-99211222D01*
X121517800Y-99232987D01*
X121517799Y-101904372D01*
X121514016Y-101921091D01*
X121512576Y-101938986D01*
X121517799Y-102023171D01*
X121517799Y-102051368D01*
X121518436Y-102060312D01*
X121521378Y-102080847D01*
X121526077Y-102156600D01*
X121529717Y-102174180D01*
X121538049Y-102197260D01*
X121541527Y-102221546D01*
X121546566Y-102238776D01*
X121577981Y-102307872D01*
X121603820Y-102379444D01*
X121612479Y-102395609D01*
X121626471Y-102414519D01*
X121636812Y-102437261D01*
X121646483Y-102452385D01*
X121703179Y-102518183D01*
X121715900Y-102535376D01*
X121722004Y-102542459D01*
X121737122Y-102557577D01*
X121788807Y-102617561D01*
X121802336Y-102629363D01*
X121821016Y-102641471D01*
X122973636Y-103794092D01*
X122982786Y-103808594D01*
X122994422Y-103822266D01*
X123057658Y-103878114D01*
X123077582Y-103898039D01*
X123084357Y-103903912D01*
X123100951Y-103916349D01*
X123157846Y-103966597D01*
X123172852Y-103976454D01*
X123195062Y-103986882D01*
X123214695Y-104001595D01*
X123230442Y-104010216D01*
X123301501Y-104036854D01*
X123370393Y-104069199D01*
X123387947Y-104074508D01*
X123411219Y-104077986D01*
X123434604Y-104086752D01*
X123452138Y-104090607D01*
X123538731Y-104097042D01*
X123559904Y-104100207D01*
X123569230Y-104100900D01*
X123590634Y-104100900D01*
X123669573Y-104106766D01*
X123687485Y-104105545D01*
X123709244Y-104100900D01*
X123864482Y-104100900D01*
X124041901Y-104278319D01*
X124041900Y-106058035D01*
X124038117Y-106074754D01*
X124036677Y-106092649D01*
X124041900Y-106176834D01*
X124041900Y-106205031D01*
X124042537Y-106213975D01*
X124045479Y-106234510D01*
X124050178Y-106310263D01*
X124053818Y-106327843D01*
X124062150Y-106350923D01*
X124065628Y-106375209D01*
X124070667Y-106392439D01*
X124102082Y-106461535D01*
X124127921Y-106533107D01*
X124136580Y-106549272D01*
X124150572Y-106568182D01*
X124160913Y-106590924D01*
X124170584Y-106606048D01*
X124227280Y-106671846D01*
X124240001Y-106689039D01*
X124246105Y-106696122D01*
X124261223Y-106711240D01*
X124312908Y-106771224D01*
X124326437Y-106783026D01*
X124345114Y-106795132D01*
X124745363Y-107195382D01*
X124724959Y-107311103D01*
X124724000Y-107322064D01*
X124724000Y-107561936D01*
X124724959Y-107572897D01*
X124766613Y-107809126D01*
X124769460Y-107819753D01*
X124851502Y-108045160D01*
X124856152Y-108055132D01*
X124976088Y-108262868D01*
X124982399Y-108271881D01*
X125136587Y-108455634D01*
X125144366Y-108463413D01*
X125328119Y-108617601D01*
X125337132Y-108623912D01*
X125544868Y-108743848D01*
X125554840Y-108748498D01*
X125780247Y-108830540D01*
X125790874Y-108833387D01*
X126027103Y-108875041D01*
X126038064Y-108876000D01*
X126277936Y-108876000D01*
X126288897Y-108875041D01*
X126525126Y-108833387D01*
X126535753Y-108830540D01*
X126761160Y-108748498D01*
X126771132Y-108743848D01*
X126978868Y-108623912D01*
X126987881Y-108617601D01*
X127171634Y-108463413D01*
X127179413Y-108455634D01*
X127333601Y-108271881D01*
X127337369Y-108266500D01*
X130722483Y-108266500D01*
X132639647Y-110183664D01*
X132457753Y-110117460D01*
X132447126Y-110114613D01*
X132210897Y-110072959D01*
X132199936Y-110072000D01*
X131960064Y-110072000D01*
X131949103Y-110072959D01*
X131712874Y-110114613D01*
X131702247Y-110117460D01*
X131476840Y-110199502D01*
X131466868Y-110204152D01*
X131259132Y-110324088D01*
X131250119Y-110330399D01*
X131066366Y-110484587D01*
X131058587Y-110492366D01*
X130904399Y-110676119D01*
X130898088Y-110685132D01*
X130778152Y-110892868D01*
X130773502Y-110902840D01*
X130691460Y-111128247D01*
X130688613Y-111138874D01*
X130646959Y-111375103D01*
X130646000Y-111386064D01*
X130646000Y-111625936D01*
X130646959Y-111636897D01*
X130667363Y-111752618D01*
X130547981Y-111872001D01*
X130423585Y-111872001D01*
X130449680Y-111724018D01*
X130374146Y-111634000D01*
X129233808Y-111633999D01*
X129233807Y-111634000D01*
X127689854Y-111633999D01*
X127614321Y-111724017D01*
X127640415Y-111872001D01*
X126693290Y-111872001D01*
X126761160Y-111847298D01*
X126771132Y-111842648D01*
X127004603Y-111707853D01*
X127020823Y-111584644D01*
X126210191Y-110774010D01*
X126105809Y-110774010D01*
X125295177Y-111584644D01*
X125311397Y-111707853D01*
X125544868Y-111842648D01*
X125554840Y-111847298D01*
X125622710Y-111872001D01*
X122893220Y-111872001D01*
X122355642Y-111334423D01*
X122459848Y-111153932D01*
X122464498Y-111143960D01*
X122546540Y-110918553D01*
X122549387Y-110907926D01*
X122591041Y-110671697D01*
X122592000Y-110660736D01*
X122592000Y-110420864D01*
X124724000Y-110420864D01*
X124724000Y-110660736D01*
X124724959Y-110671697D01*
X124766613Y-110907926D01*
X124769460Y-110918553D01*
X124851502Y-111143960D01*
X124856152Y-111153932D01*
X124990947Y-111387403D01*
X125114156Y-111403623D01*
X125924790Y-110592991D01*
X125924790Y-110488609D01*
X126391210Y-110488609D01*
X126391210Y-110592991D01*
X127201844Y-111403623D01*
X127325053Y-111387403D01*
X127382453Y-111287982D01*
X127614320Y-111287982D01*
X127689854Y-111378000D01*
X128830191Y-111378001D01*
X128904000Y-111304192D01*
X128904000Y-111304191D01*
X129159999Y-111304191D01*
X129233808Y-111378000D01*
X130374146Y-111378001D01*
X130449679Y-111287983D01*
X130423387Y-111138875D01*
X130420540Y-111128247D01*
X130338498Y-110902840D01*
X130333848Y-110892868D01*
X130213912Y-110685132D01*
X130207601Y-110676119D01*
X130053413Y-110492366D01*
X130045634Y-110484587D01*
X129861881Y-110330399D01*
X129852868Y-110324088D01*
X129645132Y-110204152D01*
X129635160Y-110199502D01*
X129409753Y-110117460D01*
X129399126Y-110114613D01*
X129250018Y-110088320D01*
X129160000Y-110163854D01*
X129159999Y-111304191D01*
X128904000Y-111304191D01*
X128904001Y-110163854D01*
X128813983Y-110088321D01*
X128664875Y-110114613D01*
X128654247Y-110117460D01*
X128428840Y-110199502D01*
X128418868Y-110204152D01*
X128211132Y-110324088D01*
X128202119Y-110330399D01*
X128018366Y-110484587D01*
X128010587Y-110492366D01*
X127856399Y-110676119D01*
X127850088Y-110685132D01*
X127730152Y-110892868D01*
X127725502Y-110902840D01*
X127643460Y-111128247D01*
X127640613Y-111138874D01*
X127614320Y-111287982D01*
X127382453Y-111287982D01*
X127459848Y-111153932D01*
X127464498Y-111143960D01*
X127546540Y-110918553D01*
X127549387Y-110907926D01*
X127591041Y-110671697D01*
X127592000Y-110660736D01*
X127592000Y-110420864D01*
X127591041Y-110409903D01*
X127549387Y-110173674D01*
X127546540Y-110163047D01*
X127464498Y-109937640D01*
X127459848Y-109927668D01*
X127325053Y-109694197D01*
X127201844Y-109677977D01*
X126391210Y-110488609D01*
X125924790Y-110488609D01*
X125114156Y-109677977D01*
X124990947Y-109694197D01*
X124856152Y-109927668D01*
X124851502Y-109937640D01*
X124769460Y-110163047D01*
X124766613Y-110173674D01*
X124724959Y-110409903D01*
X124724000Y-110420864D01*
X122592000Y-110420864D01*
X122591041Y-110409903D01*
X122570637Y-110294182D01*
X122866196Y-109998623D01*
X122880694Y-109989475D01*
X122894366Y-109977839D01*
X122950202Y-109914617D01*
X122970141Y-109894679D01*
X122976014Y-109887904D01*
X122988457Y-109871302D01*
X123038698Y-109814415D01*
X123048554Y-109799411D01*
X123058985Y-109777196D01*
X123073697Y-109757563D01*
X123082317Y-109741818D01*
X123108956Y-109670759D01*
X123141300Y-109601868D01*
X123146609Y-109584312D01*
X123150085Y-109561048D01*
X123158854Y-109537660D01*
X123162709Y-109520124D01*
X123164430Y-109496956D01*
X125295177Y-109496956D01*
X126105809Y-110307590D01*
X126210191Y-110307590D01*
X127020823Y-109496956D01*
X127004603Y-109373747D01*
X126771132Y-109238952D01*
X126761160Y-109234302D01*
X126535753Y-109152260D01*
X126525126Y-109149413D01*
X126288897Y-109107759D01*
X126277936Y-109106800D01*
X126038064Y-109106800D01*
X126027103Y-109107759D01*
X125790874Y-109149413D01*
X125780247Y-109152260D01*
X125554840Y-109234302D01*
X125544868Y-109238952D01*
X125311397Y-109373747D01*
X125295177Y-109496956D01*
X123164430Y-109496956D01*
X123169146Y-109433516D01*
X123172308Y-109412356D01*
X123173001Y-109403031D01*
X123173001Y-109381640D01*
X123178868Y-109302688D01*
X123177647Y-109284776D01*
X123173001Y-109263012D01*
X123173001Y-105647666D01*
X123176784Y-105630947D01*
X123178224Y-105613052D01*
X123173001Y-105528866D01*
X123173001Y-105500669D01*
X123172364Y-105491725D01*
X123169422Y-105471190D01*
X123164724Y-105395438D01*
X123161083Y-105377858D01*
X123152751Y-105354778D01*
X123149273Y-105330490D01*
X123144234Y-105313260D01*
X123112818Y-105244164D01*
X123086981Y-105172593D01*
X123078321Y-105156427D01*
X123064328Y-105137517D01*
X123053989Y-105114777D01*
X123044317Y-105099653D01*
X122987638Y-105033873D01*
X122974902Y-105016662D01*
X122968798Y-105009578D01*
X122953665Y-104994446D01*
X122901993Y-104934477D01*
X122888464Y-104922675D01*
X122869790Y-104910571D01*
X122574437Y-104615218D01*
X122594841Y-104499497D01*
X122595800Y-104488536D01*
X122595800Y-104248664D01*
X122594841Y-104237703D01*
X122553187Y-104001474D01*
X122550340Y-103990847D01*
X122468298Y-103765440D01*
X122463648Y-103755468D01*
X122343712Y-103547732D01*
X122337401Y-103538719D01*
X122183213Y-103354966D01*
X122175434Y-103347187D01*
X121991681Y-103192999D01*
X121982668Y-103186688D01*
X121774932Y-103066752D01*
X121764960Y-103062102D01*
X121539553Y-102980060D01*
X121528926Y-102977213D01*
X121292697Y-102935559D01*
X121281736Y-102934600D01*
X121041864Y-102934600D01*
X121030903Y-102935559D01*
X120794674Y-102977213D01*
X120784047Y-102980060D01*
X120558640Y-103062102D01*
X120548668Y-103066752D01*
X120340932Y-103186688D01*
X120331919Y-103192999D01*
X120273224Y-103242250D01*
X120273224Y-95819292D01*
X120312066Y-95847512D01*
X120320508Y-95852685D01*
X120558354Y-95973874D01*
X120567501Y-95977663D01*
X120821377Y-96060153D01*
X120831005Y-96062464D01*
X121094659Y-96104222D01*
X121104530Y-96104999D01*
X121371470Y-96104999D01*
X121381341Y-96104222D01*
X121644995Y-96062464D01*
X121654623Y-96060153D01*
X121908499Y-95977663D01*
X121917646Y-95973874D01*
X122155492Y-95852685D01*
X122163934Y-95847512D01*
X122379894Y-95690608D01*
X122387423Y-95684178D01*
X122576178Y-95495423D01*
X122582608Y-95487894D01*
X122739512Y-95271934D01*
X122744685Y-95263492D01*
X122865874Y-95025646D01*
X122869663Y-95016499D01*
X122952153Y-94762623D01*
X122954464Y-94752995D01*
X122988497Y-94538115D01*
X123719277Y-95268895D01*
G37*
%TD.AperFunction*%
X144210199Y-98823081D02*
X144364387Y-99006834D01*
X144372166Y-99014613D01*
X144555919Y-99168801D01*
X144564932Y-99175112D01*
X144772668Y-99295048D01*
X144782640Y-99299698D01*
X145008047Y-99381740D01*
X145018674Y-99384587D01*
X145254903Y-99426241D01*
X145265864Y-99427200D01*
X145505736Y-99427200D01*
X145516697Y-99426241D01*
X145752926Y-99384587D01*
X145763553Y-99381740D01*
X145988960Y-99299698D01*
X145998932Y-99295048D01*
X146073201Y-99252169D01*
X146073201Y-99738963D01*
X145743809Y-99738963D01*
X145670000Y-99812772D01*
X145670000Y-101474000D01*
X145414000Y-101474000D01*
X145414000Y-99812772D01*
X145340191Y-99738963D01*
X144568542Y-99738963D01*
X144552166Y-99741119D01*
X144272942Y-99815937D01*
X144248462Y-99828680D01*
X144092210Y-99959790D01*
X144078039Y-99976679D01*
X144008231Y-100097590D01*
X144000337Y-100090229D01*
X143992221Y-100083819D01*
X143781832Y-99944036D01*
X143772778Y-99939038D01*
X143542383Y-99835495D01*
X143532634Y-99832043D01*
X143288423Y-99767519D01*
X143278242Y-99765706D01*
X143214351Y-99759667D01*
X144156318Y-98817700D01*
X144206431Y-98817700D01*
X144210199Y-98823081D01*
%TA.AperFunction,Conductor*%
G36*
X144210199Y-98823081D02*
G01*
X144364387Y-99006834D01*
X144372166Y-99014613D01*
X144555919Y-99168801D01*
X144564932Y-99175112D01*
X144772668Y-99295048D01*
X144782640Y-99299698D01*
X145008047Y-99381740D01*
X145018674Y-99384587D01*
X145254903Y-99426241D01*
X145265864Y-99427200D01*
X145505736Y-99427200D01*
X145516697Y-99426241D01*
X145752926Y-99384587D01*
X145763553Y-99381740D01*
X145988960Y-99299698D01*
X145998932Y-99295048D01*
X146073201Y-99252169D01*
X146073201Y-99738963D01*
X145743809Y-99738963D01*
X145670000Y-99812772D01*
X145670000Y-101474000D01*
X145414000Y-101474000D01*
X145414000Y-99812772D01*
X145340191Y-99738963D01*
X144568542Y-99738963D01*
X144552166Y-99741119D01*
X144272942Y-99815937D01*
X144248462Y-99828680D01*
X144092210Y-99959790D01*
X144078039Y-99976679D01*
X144008231Y-100097590D01*
X144000337Y-100090229D01*
X143992221Y-100083819D01*
X143781832Y-99944036D01*
X143772778Y-99939038D01*
X143542383Y-99835495D01*
X143532634Y-99832043D01*
X143288423Y-99767519D01*
X143278242Y-99765706D01*
X143214351Y-99759667D01*
X144156318Y-98817700D01*
X144206431Y-98817700D01*
X144210199Y-98823081D01*
G37*
%TD.AperFunction*%
X132504963Y-89751900D02*
X132324765Y-89751900D01*
X132308046Y-89748117D01*
X132290151Y-89746677D01*
X132205965Y-89751900D01*
X132177768Y-89751900D01*
X132168824Y-89752537D01*
X132148289Y-89755479D01*
X132072536Y-89760178D01*
X132054956Y-89763818D01*
X132031876Y-89772150D01*
X132007590Y-89775628D01*
X131990360Y-89780667D01*
X131921264Y-89812082D01*
X131849692Y-89837921D01*
X131833527Y-89846580D01*
X131814617Y-89860572D01*
X131812043Y-89861742D01*
X131703369Y-89826432D01*
X131693742Y-89824121D01*
X131433973Y-89782977D01*
X131424103Y-89782200D01*
X131161097Y-89782200D01*
X131151227Y-89782977D01*
X130891459Y-89824121D01*
X130881831Y-89826432D01*
X130631698Y-89907705D01*
X130622550Y-89911494D01*
X130388210Y-90030896D01*
X130379768Y-90036069D01*
X130166992Y-90190660D01*
X130159463Y-90197090D01*
X129973490Y-90383063D01*
X129967060Y-90390592D01*
X129812469Y-90603368D01*
X129807296Y-90611810D01*
X129687894Y-90846150D01*
X129684105Y-90855298D01*
X129602832Y-91105431D01*
X129600521Y-91115059D01*
X129559377Y-91374827D01*
X129558600Y-91384697D01*
X129558600Y-91647703D01*
X129559377Y-91657573D01*
X129600521Y-91917341D01*
X129602832Y-91926969D01*
X129684105Y-92177102D01*
X129687894Y-92186250D01*
X129807296Y-92420590D01*
X129812469Y-92429032D01*
X129967060Y-92641808D01*
X129973490Y-92649337D01*
X130159463Y-92835310D01*
X130166992Y-92841740D01*
X130241420Y-92895815D01*
X130096106Y-93001392D01*
X130088577Y-93007822D01*
X129899822Y-93196577D01*
X129893392Y-93204106D01*
X129736488Y-93420066D01*
X129731315Y-93428508D01*
X129610126Y-93666354D01*
X129606337Y-93675501D01*
X129523847Y-93929377D01*
X129521536Y-93939005D01*
X129479778Y-94202659D01*
X129479001Y-94212530D01*
X129479001Y-94479470D01*
X129479778Y-94489341D01*
X129521536Y-94752995D01*
X129523847Y-94762623D01*
X129606337Y-95016499D01*
X129610126Y-95025646D01*
X129731315Y-95263492D01*
X129736488Y-95271934D01*
X129893392Y-95487894D01*
X129899822Y-95495423D01*
X130088577Y-95684178D01*
X130096106Y-95690608D01*
X130312066Y-95847512D01*
X130320508Y-95852685D01*
X130558354Y-95973874D01*
X130567501Y-95977663D01*
X130788517Y-96049476D01*
X130730641Y-96149720D01*
X130723100Y-96170437D01*
X130689122Y-96363138D01*
X130688163Y-96374099D01*
X130688163Y-97355418D01*
X130371807Y-97671775D01*
X130357305Y-97680925D01*
X130343633Y-97692561D01*
X130287780Y-97755803D01*
X130267859Y-97775723D01*
X130261985Y-97782498D01*
X130249553Y-97799088D01*
X130199302Y-97855986D01*
X130189445Y-97870991D01*
X130179017Y-97893203D01*
X130164304Y-97912835D01*
X130155683Y-97928582D01*
X130129045Y-97999641D01*
X130096700Y-98068533D01*
X130091391Y-98086087D01*
X130087913Y-98109359D01*
X130079147Y-98132744D01*
X130075292Y-98150278D01*
X130068857Y-98236871D01*
X130065692Y-98258044D01*
X130064999Y-98267370D01*
X130064999Y-98288773D01*
X130059133Y-98367711D01*
X130060354Y-98385623D01*
X130064999Y-98407382D01*
X130064999Y-98584520D01*
X130065000Y-98584534D01*
X130065000Y-99834511D01*
X129973080Y-99781441D01*
X129952363Y-99773900D01*
X129759662Y-99739922D01*
X129748701Y-99738963D01*
X127804542Y-99738963D01*
X127788166Y-99741119D01*
X127508942Y-99815937D01*
X127484462Y-99828680D01*
X127328210Y-99959790D01*
X127314039Y-99976679D01*
X127244231Y-100097590D01*
X127236337Y-100090229D01*
X127228221Y-100083819D01*
X127017832Y-99944036D01*
X127008778Y-99939038D01*
X126778383Y-99835495D01*
X126768634Y-99832043D01*
X126524423Y-99767519D01*
X126514242Y-99765706D01*
X126262770Y-99741935D01*
X126252429Y-99741808D01*
X126000451Y-99759429D01*
X125990229Y-99760993D01*
X125744513Y-99819531D01*
X125734683Y-99822743D01*
X125501827Y-99920627D01*
X125492654Y-99925402D01*
X125278912Y-100060003D01*
X125270642Y-100066212D01*
X125081754Y-100233914D01*
X125074609Y-100241391D01*
X124967627Y-100373503D01*
X124888031Y-100270146D01*
X124881072Y-100262497D01*
X124696337Y-100090229D01*
X124688221Y-100083819D01*
X124477832Y-99944036D01*
X124468778Y-99939038D01*
X124238383Y-99835495D01*
X124228634Y-99832043D01*
X123984423Y-99767519D01*
X123974242Y-99765706D01*
X123722770Y-99741935D01*
X123712429Y-99741808D01*
X123460451Y-99759429D01*
X123450229Y-99760993D01*
X123204513Y-99819531D01*
X123194683Y-99822743D01*
X123166799Y-99834464D01*
X123166799Y-99487218D01*
X124692181Y-97961837D01*
X125776258Y-97961837D01*
X125792634Y-97959681D01*
X126071859Y-97884863D01*
X126096339Y-97872120D01*
X126252590Y-97741010D01*
X126266761Y-97724121D01*
X126359296Y-97563844D01*
X126605177Y-97563844D01*
X126621397Y-97687053D01*
X126854868Y-97821848D01*
X126864840Y-97826498D01*
X127090247Y-97908540D01*
X127100874Y-97911387D01*
X127337103Y-97953041D01*
X127348064Y-97954000D01*
X127587936Y-97954000D01*
X127598897Y-97953041D01*
X127835126Y-97911387D01*
X127845753Y-97908540D01*
X128071160Y-97826498D01*
X128081132Y-97821848D01*
X128314603Y-97687053D01*
X128330823Y-97563844D01*
X127520191Y-96753210D01*
X127415809Y-96753210D01*
X126605177Y-97563844D01*
X126359296Y-97563844D01*
X126367359Y-97549880D01*
X126374900Y-97529163D01*
X126401235Y-97379806D01*
X126424156Y-97382823D01*
X127234790Y-96572191D01*
X127234790Y-96467809D01*
X127701210Y-96467809D01*
X127701210Y-96572191D01*
X128511844Y-97382823D01*
X128635053Y-97366603D01*
X128769848Y-97133132D01*
X128774498Y-97123160D01*
X128856540Y-96897753D01*
X128859387Y-96887126D01*
X128901041Y-96650897D01*
X128902000Y-96639936D01*
X128902000Y-96400064D01*
X128901041Y-96389103D01*
X128859387Y-96152874D01*
X128856540Y-96142247D01*
X128774498Y-95916840D01*
X128769848Y-95906868D01*
X128635053Y-95673397D01*
X128511844Y-95657177D01*
X127701210Y-96467809D01*
X127234790Y-96467809D01*
X126424156Y-95657177D01*
X126398358Y-95660573D01*
X126348944Y-95476156D01*
X126605177Y-95476156D01*
X127415809Y-96286790D01*
X127520191Y-96286790D01*
X128330823Y-95476156D01*
X128314603Y-95352947D01*
X128081132Y-95218152D01*
X128071160Y-95213502D01*
X127845753Y-95131460D01*
X127835126Y-95128613D01*
X127598897Y-95086959D01*
X127587936Y-95086000D01*
X127348064Y-95086000D01*
X127337103Y-95086959D01*
X127100874Y-95128613D01*
X127090247Y-95131460D01*
X126864840Y-95213502D01*
X126854868Y-95218152D01*
X126621397Y-95352947D01*
X126605177Y-95476156D01*
X126348944Y-95476156D01*
X126332863Y-95416142D01*
X126320120Y-95391662D01*
X126189010Y-95235410D01*
X126172121Y-95221239D01*
X125997880Y-95120641D01*
X125977163Y-95113100D01*
X125784462Y-95079122D01*
X125773501Y-95078163D01*
X125749458Y-95078163D01*
X125732317Y-95040463D01*
X125706480Y-94968892D01*
X125697820Y-94952726D01*
X125683827Y-94933816D01*
X125673488Y-94911076D01*
X125663816Y-94895952D01*
X125607139Y-94830175D01*
X125594399Y-94812959D01*
X125588296Y-94805876D01*
X125573160Y-94790741D01*
X125521491Y-94730776D01*
X125507962Y-94718974D01*
X125489291Y-94706872D01*
X122874437Y-92092019D01*
X122874437Y-90407942D01*
X122872281Y-90391566D01*
X122797463Y-90112342D01*
X122784720Y-90087862D01*
X122653610Y-89931610D01*
X122636721Y-89917439D01*
X122462480Y-89816841D01*
X122441763Y-89809300D01*
X122249062Y-89775322D01*
X122238101Y-89774363D01*
X120273224Y-89774363D01*
X120273224Y-89666224D01*
X132504963Y-89666224D01*
X132504963Y-89751900D01*
%TA.AperFunction,Conductor*%
G36*
X132504963Y-89751900D02*
G01*
X132324765Y-89751900D01*
X132308046Y-89748117D01*
X132290151Y-89746677D01*
X132205965Y-89751900D01*
X132177768Y-89751900D01*
X132168824Y-89752537D01*
X132148289Y-89755479D01*
X132072536Y-89760178D01*
X132054956Y-89763818D01*
X132031876Y-89772150D01*
X132007590Y-89775628D01*
X131990360Y-89780667D01*
X131921264Y-89812082D01*
X131849692Y-89837921D01*
X131833527Y-89846580D01*
X131814617Y-89860572D01*
X131812043Y-89861742D01*
X131703369Y-89826432D01*
X131693742Y-89824121D01*
X131433973Y-89782977D01*
X131424103Y-89782200D01*
X131161097Y-89782200D01*
X131151227Y-89782977D01*
X130891459Y-89824121D01*
X130881831Y-89826432D01*
X130631698Y-89907705D01*
X130622550Y-89911494D01*
X130388210Y-90030896D01*
X130379768Y-90036069D01*
X130166992Y-90190660D01*
X130159463Y-90197090D01*
X129973490Y-90383063D01*
X129967060Y-90390592D01*
X129812469Y-90603368D01*
X129807296Y-90611810D01*
X129687894Y-90846150D01*
X129684105Y-90855298D01*
X129602832Y-91105431D01*
X129600521Y-91115059D01*
X129559377Y-91374827D01*
X129558600Y-91384697D01*
X129558600Y-91647703D01*
X129559377Y-91657573D01*
X129600521Y-91917341D01*
X129602832Y-91926969D01*
X129684105Y-92177102D01*
X129687894Y-92186250D01*
X129807296Y-92420590D01*
X129812469Y-92429032D01*
X129967060Y-92641808D01*
X129973490Y-92649337D01*
X130159463Y-92835310D01*
X130166992Y-92841740D01*
X130241420Y-92895815D01*
X130096106Y-93001392D01*
X130088577Y-93007822D01*
X129899822Y-93196577D01*
X129893392Y-93204106D01*
X129736488Y-93420066D01*
X129731315Y-93428508D01*
X129610126Y-93666354D01*
X129606337Y-93675501D01*
X129523847Y-93929377D01*
X129521536Y-93939005D01*
X129479778Y-94202659D01*
X129479001Y-94212530D01*
X129479001Y-94479470D01*
X129479778Y-94489341D01*
X129521536Y-94752995D01*
X129523847Y-94762623D01*
X129606337Y-95016499D01*
X129610126Y-95025646D01*
X129731315Y-95263492D01*
X129736488Y-95271934D01*
X129893392Y-95487894D01*
X129899822Y-95495423D01*
X130088577Y-95684178D01*
X130096106Y-95690608D01*
X130312066Y-95847512D01*
X130320508Y-95852685D01*
X130558354Y-95973874D01*
X130567501Y-95977663D01*
X130788517Y-96049476D01*
X130730641Y-96149720D01*
X130723100Y-96170437D01*
X130689122Y-96363138D01*
X130688163Y-96374099D01*
X130688163Y-97355418D01*
X130371807Y-97671775D01*
X130357305Y-97680925D01*
X130343633Y-97692561D01*
X130287780Y-97755803D01*
X130267859Y-97775723D01*
X130261985Y-97782498D01*
X130249553Y-97799088D01*
X130199302Y-97855986D01*
X130189445Y-97870991D01*
X130179017Y-97893203D01*
X130164304Y-97912835D01*
X130155683Y-97928582D01*
X130129045Y-97999641D01*
X130096700Y-98068533D01*
X130091391Y-98086087D01*
X130087913Y-98109359D01*
X130079147Y-98132744D01*
X130075292Y-98150278D01*
X130068857Y-98236871D01*
X130065692Y-98258044D01*
X130064999Y-98267370D01*
X130064999Y-98288773D01*
X130059133Y-98367711D01*
X130060354Y-98385623D01*
X130064999Y-98407382D01*
X130064999Y-98584520D01*
X130065000Y-98584534D01*
X130065000Y-99834511D01*
X129973080Y-99781441D01*
X129952363Y-99773900D01*
X129759662Y-99739922D01*
X129748701Y-99738963D01*
X127804542Y-99738963D01*
X127788166Y-99741119D01*
X127508942Y-99815937D01*
X127484462Y-99828680D01*
X127328210Y-99959790D01*
X127314039Y-99976679D01*
X127244231Y-100097590D01*
X127236337Y-100090229D01*
X127228221Y-100083819D01*
X127017832Y-99944036D01*
X127008778Y-99939038D01*
X126778383Y-99835495D01*
X126768634Y-99832043D01*
X126524423Y-99767519D01*
X126514242Y-99765706D01*
X126262770Y-99741935D01*
X126252429Y-99741808D01*
X126000451Y-99759429D01*
X125990229Y-99760993D01*
X125744513Y-99819531D01*
X125734683Y-99822743D01*
X125501827Y-99920627D01*
X125492654Y-99925402D01*
X125278912Y-100060003D01*
X125270642Y-100066212D01*
X125081754Y-100233914D01*
X125074609Y-100241391D01*
X124967627Y-100373503D01*
X124888031Y-100270146D01*
X124881072Y-100262497D01*
X124696337Y-100090229D01*
X124688221Y-100083819D01*
X124477832Y-99944036D01*
X124468778Y-99939038D01*
X124238383Y-99835495D01*
X124228634Y-99832043D01*
X123984423Y-99767519D01*
X123974242Y-99765706D01*
X123722770Y-99741935D01*
X123712429Y-99741808D01*
X123460451Y-99759429D01*
X123450229Y-99760993D01*
X123204513Y-99819531D01*
X123194683Y-99822743D01*
X123166799Y-99834464D01*
X123166799Y-99487218D01*
X124692181Y-97961837D01*
X125776258Y-97961837D01*
X125792634Y-97959681D01*
X126071859Y-97884863D01*
X126096339Y-97872120D01*
X126252590Y-97741010D01*
X126266761Y-97724121D01*
X126359296Y-97563844D01*
X126605177Y-97563844D01*
X126621397Y-97687053D01*
X126854868Y-97821848D01*
X126864840Y-97826498D01*
X127090247Y-97908540D01*
X127100874Y-97911387D01*
X127337103Y-97953041D01*
X127348064Y-97954000D01*
X127587936Y-97954000D01*
X127598897Y-97953041D01*
X127835126Y-97911387D01*
X127845753Y-97908540D01*
X128071160Y-97826498D01*
X128081132Y-97821848D01*
X128314603Y-97687053D01*
X128330823Y-97563844D01*
X127520191Y-96753210D01*
X127415809Y-96753210D01*
X126605177Y-97563844D01*
X126359296Y-97563844D01*
X126367359Y-97549880D01*
X126374900Y-97529163D01*
X126401235Y-97379806D01*
X126424156Y-97382823D01*
X127234790Y-96572191D01*
X127234790Y-96467809D01*
X127701210Y-96467809D01*
X127701210Y-96572191D01*
X128511844Y-97382823D01*
X128635053Y-97366603D01*
X128769848Y-97133132D01*
X128774498Y-97123160D01*
X128856540Y-96897753D01*
X128859387Y-96887126D01*
X128901041Y-96650897D01*
X128902000Y-96639936D01*
X128902000Y-96400064D01*
X128901041Y-96389103D01*
X128859387Y-96152874D01*
X128856540Y-96142247D01*
X128774498Y-95916840D01*
X128769848Y-95906868D01*
X128635053Y-95673397D01*
X128511844Y-95657177D01*
X127701210Y-96467809D01*
X127234790Y-96467809D01*
X126424156Y-95657177D01*
X126398358Y-95660573D01*
X126348944Y-95476156D01*
X126605177Y-95476156D01*
X127415809Y-96286790D01*
X127520191Y-96286790D01*
X128330823Y-95476156D01*
X128314603Y-95352947D01*
X128081132Y-95218152D01*
X128071160Y-95213502D01*
X127845753Y-95131460D01*
X127835126Y-95128613D01*
X127598897Y-95086959D01*
X127587936Y-95086000D01*
X127348064Y-95086000D01*
X127337103Y-95086959D01*
X127100874Y-95128613D01*
X127090247Y-95131460D01*
X126864840Y-95213502D01*
X126854868Y-95218152D01*
X126621397Y-95352947D01*
X126605177Y-95476156D01*
X126348944Y-95476156D01*
X126332863Y-95416142D01*
X126320120Y-95391662D01*
X126189010Y-95235410D01*
X126172121Y-95221239D01*
X125997880Y-95120641D01*
X125977163Y-95113100D01*
X125784462Y-95079122D01*
X125773501Y-95078163D01*
X125749458Y-95078163D01*
X125732317Y-95040463D01*
X125706480Y-94968892D01*
X125697820Y-94952726D01*
X125683827Y-94933816D01*
X125673488Y-94911076D01*
X125663816Y-94895952D01*
X125607139Y-94830175D01*
X125594399Y-94812959D01*
X125588296Y-94805876D01*
X125573160Y-94790741D01*
X125521491Y-94730776D01*
X125507962Y-94718974D01*
X125489291Y-94706872D01*
X122874437Y-92092019D01*
X122874437Y-90407942D01*
X122872281Y-90391566D01*
X122797463Y-90112342D01*
X122784720Y-90087862D01*
X122653610Y-89931610D01*
X122636721Y-89917439D01*
X122462480Y-89816841D01*
X122441763Y-89809300D01*
X122249062Y-89775322D01*
X122238101Y-89774363D01*
X120273224Y-89774363D01*
X120273224Y-89666224D01*
X132504963Y-89666224D01*
X132504963Y-89751900D01*
G37*
%TD.AperFunction*%
%TD*%
M02*
