M48
; DRILL file {KiCad (5.99.0-2514-g93e326803)} date Sat Aug  1 18:04:59 2020
; FORMAT={-:-/ absolute / inch / decimal}
; #@! TF.CreationDate,2020-08-01T18:04:59+03:00
; #@! TF.GenerationSoftware,Kicad,Pcbnew,(5.99.0-2514-g93e326803)
; #@! TF.FileFunction,Plated,1,2,PTH
FMAT,2
INCH
T1C0.0315
T2C0.0433
T3C0.0591
%
G90
G05
T1
X4.9669Y-4.23
X5.2Y-3.824
X5.3Y-3.824
X5.4Y-3.824
X4.7701Y-4.109
X4.967Y-4.109
X5.595Y-4.185
X5.6934Y-4.185
X4.92Y-3.8
X5.0184Y-3.8
X5.2Y-4.09
X5.2Y-4.39
X5.32Y-4.09
X5.32Y-4.39
X5.08Y-4.09
X5.08Y-4.39
X5.527Y-3.858
X5.7239Y-3.858
X5.44Y-4.09
X5.44Y-4.39
X4.77Y-4.352
X4.9669Y-4.352
X4.77Y-4.23
T2
X5.6Y-4.53
X5.7Y-4.53
X5.154Y-4.53
X5.254Y-4.53
X5.354Y-4.53
X5.454Y-4.53
X5.53Y-3.99
X5.63Y-3.99
X5.73Y-3.99
X4.769Y-3.603
X5.169Y-3.603
X5.28Y-3.566
X5.38Y-3.566
X4.87Y-3.99
X4.97Y-3.99
X5.07Y-3.99
T3
X5.4331Y-3.7144
X5.8269Y-3.7144
X4.7731Y-3.7144
X5.1669Y-3.7144
T0
M30
